<?xml version="1.0" encoding="UTF-8"?>
<!DOCTYPE svg PUBLIC "-//W3C//DTD SVG 1.1//EN" "http://www.w3.org/Graphics/SVG/1.1/DTD/svg11.dtd">
<!-- Creator: CorelDRAW 2021.5 -->
<svg xmlns="http://www.w3.org/2000/svg" xml:space="preserve" width="12.085mm" height="11.9062mm" version="1.1" style="shape-rendering:geometricPrecision; text-rendering:geometricPrecision; image-rendering:optimizeQuality; fill-rule:evenodd; clip-rule:evenodd"
viewBox="0 0 94.28 92.88"
 xmlns:xlink="http://www.w3.org/1999/xlink"
 xmlns:xodm="http://www.corel.com/coreldraw/odm/2003">
 <defs>
  <style type="text/css">
   <![CDATA[
    .fil0 {fill:#D7B46A}
   ]]>
  </style>
 </defs>
 <g id="Слой_x0020_1">
  <metadata id="CorelCorpID_0Corel-Layer"/>
  <path class="fil0" d="M17.33 26.89c0,0 -0.27,0.08 -0.46,0.15 -0.15,0.04 -0.39,0.11 -0.58,0.19 -0.19,0.08 -0.35,0.11 -0.58,0.19 -0.23,0.08 -0.46,0.15 -0.66,0.23 -0.19,0.08 -0.31,0.11 -0.42,0.15 -0.12,0.04 -0.23,0.08 -0.39,0.11 -0.15,0.04 -0.35,0.11 -0.58,0.19 -0.19,0.08 -0.42,0.15 -0.66,0.23 0.42,-0.11 0.85,-0.23 1.39,-0.38 0.54,-0.15 1.16,-0.3 1.58,-0.42 0.46,-0.11 0.73,-0.19 1,-0.27 0.27,-0.08 0.54,-0.15 0.69,-0.19 0.15,-0.04 0.15,-0.04 0.35,0 0.19,0 0.58,0.04 0.96,0.08 0.39,0 0.77,0 1.16,0 0.39,0 0.85,-0.04 1.23,-0.08 0.42,0 0.81,-0.08 1.16,-0.08 0.35,0 0.66,-0.04 0.93,-0.08 0.27,0 0.54,-0.04 0.77,-0.08 0.23,0 0.39,0 0.58,-0.04 0.73,0.88 1.47,1.75 2.16,2.55 0.46,0.53 0.89,1.07 1.31,1.52 -0.15,0 -0.35,0 -0.58,0.08 -0.23,0 -0.54,0.08 -0.81,0.11 -0.27,0 -0.54,0.08 -0.89,0.11 -0.31,0 -0.69,0.08 -1.12,0.11 -0.42,0.04 -0.93,0.08 -1.39,0.11 -0.46,0 -0.85,0.04 -1.2,0.08 -0.31,0 -0.58,0 -0.89,0 -0.31,0 -0.69,0 -1.08,0 -0.42,0 -0.85,0 -1.35,0 -0.54,0 -1.16,0 -1.77,0 -0.62,0 -1.23,0 -1.62,-0.04 -0.39,0 -0.58,0 -0.73,0 0.66,0.08 1.31,0.11 1.81,0.15 0.5,0.04 0.93,0.08 1.27,0.08 0.35,0 0.66,0 1.08,0.08 0.42,0 0.96,0.04 1.43,0.08 0.5,0 0.93,0 1.39,0 0.46,0 0.93,0 1.39,0 0.46,0 0.89,0 1.35,-0.04 0.46,0 0.93,-0.04 1.47,-0.08 0.5,-0.04 1.08,-0.08 1.5,-0.11 0.42,-0.04 0.77,-0.08 1.08,-0.11 0.93,1.07 1.77,2.02 2.58,2.86 0.39,0.38 0.73,0.76 1.08,1.14 -0.27,0.04 -0.58,0.11 -0.93,0.15 -0.35,0.08 -0.77,0.15 -1.23,0.23 -0.46,0.08 -0.96,0.15 -1.5,0.23 -0.54,0.08 -1.16,0.19 -1.85,0.23 -0.69,0.08 -1.43,0.11 -1.77,0.11 -0.35,0 -0.39,0 -0.46,0 -0.08,-0.04 -0.23,-0.11 -0.46,-0.23 -0.23,-0.11 -0.54,-0.27 -0.85,-0.42 -0.31,-0.15 -0.66,-0.34 -1.08,-0.53 -0.42,-0.19 -0.93,-0.46 -1.47,-0.68 -0.54,-0.27 -1.08,-0.5 -1.62,-0.76 0.19,0.11 0.42,0.23 0.69,0.38 0.27,0.15 0.66,0.34 1.08,0.57 0.42,0.23 0.89,0.46 1.43,0.72 0.54,0.27 1.12,0.57 1.47,0.76 0.35,0.15 0.42,0.19 0.5,0.23 -0.42,0 -0.85,0 -1.27,-0.04 -0.42,0 -0.85,-0.04 -1.43,-0.08 -0.58,0 -1.27,-0.08 -1.77,-0.08 -0.5,0 -0.85,0 -1.12,0.04 -0.23,0.04 -0.39,0.11 -0.54,0.19 0.15,-0.04 0.31,-0.11 0.5,-0.11 0.23,0 0.5,0 0.93,0 0.46,0 1.08,0.08 1.85,0.15 0.77,0.08 1.66,0.15 2.43,0.19 0.73,0.04 1.35,0.08 2.04,0.04 0.73,0 1.54,-0.11 2.43,-0.19 0.89,-0.08 1.81,-0.19 2.55,-0.27 0.77,-0.11 1.35,-0.19 1.93,-0.27 0.69,0.72 1.43,1.41 2.16,2.09 0.58,0.53 1.16,1.07 1.77,1.56 -0.08,0.04 -0.19,0.08 -0.39,0.15 -0.19,0.08 -0.5,0.15 -0.81,0.23 -0.35,0.08 -0.69,0.15 -1.08,0.23 -0.39,0.08 -0.73,0.11 -1.16,0.15 -0.42,0 -0.93,0.08 -1.39,0.08 -0.46,0 -0.96,0 -1.39,0 -0.46,0 -0.89,0 -1.31,0 -0.42,0 -0.85,0.04 -1.23,0.08 -0.39,0 -0.73,0.08 -1.04,0.11 -0.31,0 -0.54,0.08 -0.77,0.11 -0.23,0 -0.46,0.04 -0.62,0.08 -0.15,0 -0.27,0 -0.39,0 -0.12,0 -0.23,-0.04 -0.35,-0.08 0.08,0 0.12,0.08 0.23,0.08 0.08,0 0.19,0.04 0.31,0.04 0.12,0 0.27,0 0.46,0 0.19,0 0.42,-0.04 0.7,-0.08 0.27,-0.04 0.54,-0.04 0.89,-0.08 0.31,0 0.69,0 1,-0.04 0.35,0 0.66,0 0.93,0 0.31,0 0.58,0 0.85,0 0.27,0 0.58,0 0.89,0.04 0.35,0 0.73,0.04 1.16,0.04 0.39,0 0.77,0 1.16,0 0.39,0 0.81,-0.08 1.23,-0.11 0.39,-0.04 0.81,-0.11 1.16,-0.19 0.39,-0.08 0.73,-0.19 0.97,-0.27 0.23,-0.08 0.35,-0.11 0.5,-0.19 0.58,0.49 1.16,0.99 1.74,1.41 1.23,0.99 2.39,1.83 3.36,2.47 -0.42,-0.08 -0.85,-0.11 -1.31,-0.15 -0.5,-0.04 -1.08,-0.08 -1.66,-0.04 -0.58,0 -1.2,0.08 -1.7,0.11 -0.46,0.04 -0.81,0.11 -1.16,0.15 -0.35,0.04 -0.69,0.08 -1,0.08 -0.31,0 -0.62,0 -1.08,-0.04 -0.42,-0.04 -1,-0.15 -1.47,-0.27 -0.46,-0.11 -0.85,-0.23 -1.12,-0.3 -0.27,-0.11 -0.46,-0.19 -0.66,-0.27 0.27,0.11 0.5,0.27 0.77,0.38 0.27,0.11 0.58,0.19 0.85,0.27 0.31,0.08 0.58,0.15 0.96,0.23 0.35,0.08 0.77,0.11 1.16,0.15 0.42,0.04 0.81,0.08 1.16,0.08 0.31,0 0.58,0 0.73,-0.04 0.19,0 0.31,-0.04 0.46,-0.08 0.15,0 0.31,0 0.58,-0.04 0.27,0 0.73,0 1.12,0 0.39,0 0.77,0 1.12,0.04 0.35,0 0.62,0.04 0.89,0.08 0.27,0 0.58,0.08 0.85,0.15 0.31,0.04 0.62,0.11 0.89,0.15 0.27,0.04 0.54,0.08 0.77,0.11 0.54,0.34 1.08,0.61 1.58,0.88 -2.47,0.42 -5.05,0.76 -8.26,0.72 -3.62,-0.08 -8.1,-0.65 -12.03,-1.83 -3.93,-1.18 -7.33,-2.93 -10.3,-5.37 -2.93,-2.44 -5.4,-5.6 -7.29,-8.79 -3.97,-6.66 -8.29,-20.4 -4.67,-27.45 8.99,-3.24 19.29,-0.38 27.5,4.11 3.28,1.79 6.02,3.96 8.49,6.81 2.47,2.85 4.67,6.36 5.98,10.09 1.35,3.73 1.85,7.73 2.04,10.89 0.19,3.16 0.04,5.48 -0.23,7.54 -0.12,0.88 -0.27,1.71 -0.46,2.51 -0.46,-0.27 -0.96,-0.53 -1.58,-0.91 -0.27,-0.15 -0.58,-0.38 -0.89,-0.57 0,-0.34 0,-0.68 0,-1.1 0,-0.46 0.08,-0.99 0.12,-1.45 0.04,-0.46 0.12,-0.84 0.19,-1.26 0.08,-0.42 0.15,-0.91 0.23,-1.33 0.08,-0.42 0.12,-0.8 0.12,-1.18 0,-0.38 0,-0.8 0,-1.18 0,-0.38 -0.12,-0.76 -0.19,-1.1 -0.12,-0.34 -0.23,-0.68 -0.39,-1.03 0.04,0.11 0.08,0.3 0.15,0.46 0.04,0.19 0.12,0.42 0.15,0.68 0.04,0.27 0.08,0.65 0.08,1.07 0,0.46 0,0.99 -0.08,1.52 -0.08,0.53 -0.23,1.1 -0.35,1.79 -0.15,0.69 -0.27,1.48 -0.39,2.13 -0.08,0.65 -0.12,1.14 -0.19,1.6 -0.19,-0.11 -0.39,-0.23 -0.54,-0.34 -0.58,-0.38 -1.04,-0.68 -1.58,-1.1 -0.54,-0.42 -1.2,-0.88 -1.93,-1.45 0,0 -0.08,-0.04 -0.08,-0.08 0.15,-0.38 0.31,-0.76 0.46,-1.14 0.15,-0.38 0.27,-0.8 0.39,-1.14 0.12,-0.34 0.19,-0.57 0.27,-0.91 0.08,-0.34 0.19,-0.72 0.27,-1.14 0.08,-0.42 0.15,-0.8 0.23,-1.22 0.08,-0.42 0.12,-0.88 0.15,-1.26 0,-0.38 0,-0.65 0,-0.95 0,-0.27 0,-0.53 0,-0.8 0,-0.23 0,-0.42 0,-0.72 0,-0.27 0,-0.65 0,-1.07 0,-0.42 0.04,-0.91 0.08,-1.33 0.04,-0.42 0.08,-0.8 0.15,-1.14 0.04,-0.3 0.08,-0.57 0.08,-0.76 0,-0.19 0,-0.34 0,-0.46 0,-0.11 0,-0.23 -0.04,-0.31 0,-0.08 0,-0.11 -0.04,-0.15 0,0.15 0,0.3 0,0.46 0,0.15 0,0.3 0,0.46 0,0.15 -0.04,0.3 -0.08,0.49 -0.04,0.23 -0.12,0.5 -0.15,0.88 -0.04,0.38 -0.08,0.84 -0.12,1.22 0,0.38 -0.04,0.65 -0.08,0.88 0,0.23 0,0.38 0,0.53 0,0.15 0,0.23 0,0.34 -0.12,-0.34 -0.19,-0.72 -0.31,-1.1 -0.12,-0.38 -0.23,-0.8 -0.39,-1.29 -0.15,-0.53 -0.35,-1.14 -0.46,-1.52 -0.12,-0.38 -0.19,-0.49 -0.23,-0.61 0.15,0.65 0.35,1.26 0.46,1.75 0.12,0.49 0.23,0.8 0.31,1.07 0.08,0.27 0.15,0.46 0.19,0.68 0.08,0.23 0.12,0.5 0.19,0.69 0.08,0.23 0.12,0.38 0.15,0.53 0.04,0.15 0.08,0.27 0.08,0.3 0,0.08 0,0.08 0,0.27 0,0.19 0,0.57 -0.04,0.99 0,0.42 -0.08,0.88 -0.15,1.33 -0.08,0.5 -0.19,0.99 -0.31,1.52 -0.12,0.53 -0.27,1.03 -0.42,1.52 -0.15,0.5 -0.31,0.95 -0.5,1.37 -0.19,0.42 -0.35,0.84 -0.54,1.26 -0.54,-0.46 -1.12,-0.91 -1.74,-1.45 -0.81,-0.68 -1.62,-1.48 -2.43,-2.25 0.35,-0.84 0.69,-1.67 1.04,-2.59 0.35,-0.91 0.62,-1.94 0.85,-2.78 0.23,-0.88 0.39,-1.56 0.5,-2.28 0.12,-0.72 0.19,-1.45 0.23,-2.21 0.04,-0.76 0,-1.56 0,-2.4 0,-0.84 -0.08,-1.75 -0.12,-2.47 0,-0.72 0,-1.22 0,-1.6 0,-0.34 0.08,-0.53 0.15,-0.72 -0.08,0.08 -0.15,0.11 -0.23,0.27 -0.08,0.15 -0.12,0.38 -0.12,1.07 0,0.68 0,1.83 0,3.08 0,1.26 -0.08,2.63 -0.19,3.73 -0.15,1.14 -0.39,2.06 -0.73,3.2 -0.35,1.18 -0.81,2.59 -1.16,3.5 -0.35,0.91 -0.54,1.33 -0.73,1.75 -0.62,-0.61 -1.23,-1.22 -1.81,-1.83 -0.62,-0.61 -1.16,-1.18 -1.7,-1.79 0.12,-0.57 0.27,-1.14 0.5,-2.21 0.23,-1.07 0.58,-2.63 0.81,-3.88 0.23,-1.26 0.39,-2.25 0.42,-2.86 0.08,-0.57 0.08,-0.76 0.08,-0.84 0,-0.08 0,-0.08 0.04,-0.19 0.04,-0.08 0.12,-0.23 0.39,-0.72 0.27,-0.49 0.69,-1.33 1.08,-2.02 0.39,-0.69 0.66,-1.26 0.93,-1.79 -0.27,0.34 -0.54,0.65 -0.93,1.33 -0.39,0.65 -0.89,1.64 -1.16,2.17 -0.27,0.53 -0.31,0.61 -0.39,0.65 0,-0.8 0.04,-1.6 0.04,-2.44 0,-0.84 0,-1.71 0,-2.36 0,-0.65 -0.08,-1.1 -0.15,-1.56 0,1.03 -0,2.06 -0.04,3.01 0,0.95 -0.04,1.9 -0.08,2.7 -0.04,0.84 -0.12,1.56 -0.35,2.74 -0.19,1.18 -0.54,2.78 -0.85,4.11 -0.31,1.37 -0.62,2.47 -0.93,3.58 -0.58,-0.65 -1.16,-1.29 -1.66,-1.83 -0.54,-0.61 -1,-1.1 -1.5,-1.71 0.12,-0.84 0.23,-1.67 0.31,-2.47 0.12,-0.8 0.23,-1.6 0.31,-2.32 0.12,-0.72 0.19,-1.37 0.27,-1.87 0.08,-0.49 0.12,-0.88 0.15,-1.41 0,-0.53 0,-1.18 0,-1.83 -0.04,-0.65 -0.12,-1.26 -0.27,-1.94 -0.12,-0.68 -0.27,-1.45 -0.42,-1.98 -0.12,-0.53 -0.23,-0.8 -0.31,-1.07 0.08,0.34 0.15,0.65 0.23,0.95 0.08,0.31 0.12,0.57 0.19,0.91 0.08,0.34 0.12,0.72 0.15,1.07 0.04,0.34 0.08,0.68 0.12,0.99 0,0.34 0,0.72 0,1.14 0,0.42 0,0.88 0,1.22 0,0.34 0,0.53 -0.08,0.76 0,0.19 -0.08,0.42 -0.12,0.76 -0.04,0.34 -0.12,0.84 -0.19,1.29 -0.08,0.46 -0.15,0.91 -0.23,1.29 -0.08,0.38 -0.12,0.76 -0.19,1.18 -0.08,0.46 -0.15,0.99 -0.23,1.45 -0.08,0.46 -0.15,0.8 -0.23,1.14 -0.42,-0.49 -0.89,-1.03 -1.35,-1.56 -0.62,-0.72 -1.16,-1.37 -1.62,-1.9 -0.15,-0.19 -0.31,-0.34 -0.46,-0.53 0,-0.27 0,-0.49 0,-1.22 0,-0.72 0.04,-1.87 0.08,-2.82 0.04,-0.91 0.12,-1.56 0.19,-2.09 0.08,-0.53 0.19,-0.91 0.23,-1.41 0,-0.49 0,-1.14 -0.08,-1.83 -0.08,-0.68 -0.19,-1.37 -0.35,-1.9 -0.15,-0.53 -0.27,-0.88 -0.42,-1.22 0.08,0.23 0.12,0.46 0.19,0.84 0.08,0.34 0.15,0.84 0.23,1.22 0.08,0.42 0.12,0.72 0.15,1.1 0,0.38 0.04,0.8 0.04,1.1 0,0.34 0,0.57 -0.08,0.88 -0.04,0.31 -0.15,0.61 -0.23,1.1 -0.12,0.46 -0.19,1.07 -0.27,1.87 -0.08,0.76 -0.12,1.71 -0.15,2.36 0,0.65 -0.04,0.99 -0.08,1.37 -0.08,-0.08 -0.15,-0.19 -0.23,-0.27 -0.42,-0.49 -0.93,-1.1 -1.43,-1.64 -0.46,-0.53 -0.89,-1.03 -1.27,-1.48 -0.08,-0.08 -0.15,-0.15 -0.23,-0.27 -0.04,-0.19 -0.08,-0.38 -0.15,-0.68 -0.04,-0.27 -0.12,-0.61 -0.15,-0.99 -0.04,-0.34 -0.08,-0.72 -0.12,-1.07 0,-0.34 -0.04,-0.65 -0.04,-0.8 0,-0.15 0,-0.15 0,-0.23 0,-0.04 0.04,-0.11 0.08,-0.23 0.04,-0.11 0.08,-0.27 0.15,-0.46 0.04,-0.19 0.12,-0.38 0.19,-0.57 0.08,-0.23 0.15,-0.42 0.23,-0.72 0.08,-0.27 0.19,-0.61 0.31,-0.91 0.12,-0.31 0.19,-0.57 0.27,-0.88 0.08,-0.3 0.19,-0.61 0.31,-0.91 -0.04,0.11 -0.08,0.19 -0.15,0.38 -0.08,0.15 -0.15,0.38 -0.23,0.61 -0.08,0.23 -0.15,0.42 -0.23,0.65 -0.08,0.23 -0.15,0.46 -0.23,0.65 -0.08,0.23 -0.15,0.42 -0.23,0.61 -0.08,0.19 -0.15,0.38 -0.19,0.57 -0.08,0.19 -0.12,0.38 -0.19,0.49 -0.04,0.11 -0.08,0.15 -0.08,0.23 0,-0.15 0,-0.31 0,-0.46 0,-0.15 0,-0.34 0.04,-0.49 0,-0.15 0.08,-0.27 0.08,-0.42 0,-0.15 0.04,-0.3 0.08,-0.42 0,-0.15 0,-0.27 0,-0.38 0,-0.15 0,-0.3 0,-0.46 0,-0.15 -0.04,-0.31 -0.08,-0.42 0,-0.11 -0.08,-0.27 -0.12,-0.46 -0.04,-0.19 -0.12,-0.42 -0.19,-0.65 -0.08,-0.23 -0.15,-0.38 -0.23,-0.53 -0.08,-0.15 -0.15,-0.3 -0.23,-0.46 -0.08,-0.15 -0.15,-0.27 -0.23,-0.42 0.08,0.15 0.15,0.34 0.23,0.53 0.08,0.19 0.19,0.46 0.27,0.68 0.08,0.23 0.15,0.46 0.19,0.68 0.08,0.23 0.12,0.46 0.15,0.69 0,0.23 0.04,0.42 0.04,0.65 0,0.19 0,0.38 -0.04,0.61 0,0.19 -0.12,0.42 -0.15,0.65 -0.04,0.19 -0.08,0.38 -0.12,0.65 0,0.23 -0.08,0.57 -0.08,0.91 0,0.34 0,0.72 0,1.1 0,0.38 0,0.76 0.08,1.07 0,0.3 0.08,0.57 0.12,0.84 -0.08,-0.08 -0.15,-0.19 -0.23,-0.27 -0.39,-0.46 -0.81,-0.91 -1.23,-1.37 -0.42,-0.46 -0.85,-0.91 -1.23,-1.33 -0.15,-0.19 -0.35,-0.34 -0.5,-0.53 -0.08,-0.19 -0.15,-0.42 -0.23,-0.65 -0.08,-0.27 -0.15,-0.57 -0.23,-0.88 -0.08,-0.3 -0.15,-0.65 -0.23,-0.95 -0.08,-0.3 -0.12,-0.61 -0.15,-0.84 0,-0.23 -0.04,-0.46 -0.04,-0.65 0,-0.19 0,-0.42 0,-0.65 0,-0.23 -0.04,-0.53 -0.12,-0.84 -0.04,-0.3 -0.12,-0.68 -0.19,-0.95 -0.08,-0.3 -0.12,-0.49 -0.15,-0.72 0,0.08 0,0.15 0.04,0.3 0,0.15 0.04,0.38 0.08,0.57 0,0.19 0,0.31 0.04,0.46 0,0.15 0,0.3 0.04,0.46 0,0.15 0,0.31 0,0.46 0,0.15 0,0.3 0,0.46 0,0.15 0,0.27 0,0.42 0,0.15 0,0.27 0,0.42 0,0.15 0,0.34 0,0.57 0,0.23 0.04,0.49 0.08,0.72 0,0.23 0.08,0.42 0.12,0.65 0,0.19 0.08,0.42 0.12,0.57 0,0.15 0.04,0.23 0.08,0.34 -0.39,-0.42 -0.89,-0.91 -1.35,-1.41 -0.46,-0.49 -0.97,-0.99 -1.47,-1.45 -0.08,-0.3 -0.19,-0.61 -0.31,-0.91 -0.12,-0.34 -0.31,-0.72 -0.46,-1.07 -0.15,-0.34 -0.31,-0.72 -0.42,-0.99 -0.12,-0.31 -0.23,-0.53 -0.27,-0.68 -0.08,-0.15 -0.08,-0.27 -0.12,-0.38 0,0.23 0.08,0.42 0.15,0.72 0.08,0.3 0.19,0.72 0.31,1.1 0.12,0.38 0.23,0.72 0.31,0.99 0.08,0.27 0.12,0.46 0.19,0.61 -0.35,-0.34 -0.69,-0.65 -1,-0.95 -0.5,-0.49 -1,-0.91 -1.47,-1.33 -0.46,-0.42 -0.96,-0.84 -1.39,-1.22 -0.46,-0.38 -0.89,-0.72 -1.2,-0.95 -0.31,-0.23 -0.54,-0.38 -0.73,-0.53 1.12,1.07 2.28,2.13 3.47,3.27 0.27,0.23 0.5,0.5 0.77,0.76 -1.08,0 -2.12,0.08 -3.2,0.08l0.62 0.08c0.62,0.08 1.85,0.19 3.09,0.34 0.81,0.8 1.66,1.64 2.51,2.51 0.42,0.42 0.81,0.84 1.23,1.29 -0.23,0 -0.5,-0.04 -0.81,-0.08 -0.31,0 -0.73,0 -1.04,-0.04 -0.31,0 -0.58,0 -0.77,0 -0.19,0 -0.35,0 -0.54,0.04 -0.19,0 -0.39,0 -0.69,-0.04 -0.31,0 -0.69,-0.08 -1.08,-0.15 -0.39,-0.08 -0.69,-0.11 -1.04,-0.19 0.08,0 0.19,0.08 0.35,0.11 0.19,0.04 0.46,0.11 0.69,0.15 0.23,0.08 0.46,0.11 0.66,0.15 0.19,0.04 0.39,0.08 0.54,0.11 0.15,0 0.27,0.04 0.35,0.04 0.12,0 0.23,0 0.35,0 0.12,0 0.23,0 0.39,0 0.12,0 0.27,0 0.42,0 0.15,0 0.35,0 0.54,0.04 0.19,0 0.39,0.04 0.62,0.08 0.19,0 0.39,0.04 0.62,0.08 0.23,0 0.46,0.08 0.62,0.08 0.15,0 0.19,0 0.27,0 0.73,0.84 1.54,1.71 2.39,2.74 0.31,0.34 0.58,0.68 0.93,1.07 -0.04,0 -0.12,0 -0.19,0 -0.08,0 -0.19,0 -0.39,-0.04 -0.15,0 -0.39,0 -0.73,-0.04 -0.35,0 -0.77,0 -1.16,0 -0.39,0 -0.73,0.04 -0.96,0.08 -0.23,0.04 -0.39,0.08 -0.58,0.11 -0.19,0 -0.42,0.08 -0.69,0.08 -0.27,0 -0.54,0 -0.81,0 -0.27,0 -0.5,-0.04 -0.73,-0.11 -0.27,-0.04 -0.54,-0.11 -0.77,-0.15 -0.27,-0.08 -0.46,-0.11 -0.77,-0.19 -0.31,-0.08 -0.66,-0.19 -0.89,-0.27 -0.23,-0.08 -0.27,-0.08 -0.35,-0.11 0.27,0.11 0.5,0.23 0.77,0.34 0.27,0.11 0.54,0.19 0.93,0.31 0.35,0.11 0.77,0.19 1.08,0.27 0.31,0.08 0.54,0.11 0.77,0.15 0.23,0 0.46,0.04 0.69,0.04 0.23,0 0.42,0 0.62,0 0.19,0 0.39,-0.04 0.54,-0.08 0.15,0 0.31,-0.04 0.54,-0.08 0.23,0 0.5,0 0.77,0 0.27,0 0.54,0 0.81,0.04 0.27,0 0.54,0.08 0.85,0.11 0.27,0.04 0.58,0.11 0.77,0.15 0.19,0.04 0.31,0.08 0.42,0.11 0.96,1.14 2.01,2.36 3.09,3.62 -0.08,0 -0.19,0 -0.35,0 -0.15,0 -0.42,0 -0.69,0 -0.27,0 -0.58,0 -0.85,0 -0.27,0 -0.46,0 -0.73,0.04 -0.27,0 -0.54,0.04 -0.81,0.08 -0.27,0 -0.46,0.08 -0.66,0.08 -0.19,0 -0.31,0.04 -0.46,0.08 -0.12,0 -0.23,0.04 -0.35,0.08 -0.12,0 -0.23,0 -0.35,0.04 -0.12,0 -0.27,0 -0.42,0 -0.15,0 -0.31,0 -0.5,0 -0.19,0 -0.46,0 -0.73,-0.04 -0.27,0 -0.5,-0.08 -0.77,-0.11 -0.27,-0.04 -0.54,-0.11 -0.77,-0.15 -0.23,-0.04 -0.42,-0.08 -0.73,-0.19 -0.31,-0.08 -0.73,-0.19 -1.12,-0.3 0.23,0.08 0.5,0.19 0.85,0.3 0.35,0.11 0.77,0.23 1.2,0.34 0.42,0.11 0.85,0.19 1.23,0.27 0.39,0.08 0.69,0.11 1,0.11 0.31,0 0.58,0 0.77,0 0.23,0 0.39,0 0.54,-0.04 0.15,0 0.31,-0.04 0.46,-0.08 0.15,0 0.35,-0.04 0.58,-0.08 0.23,0 0.54,0 0.81,-0.04 0.31,0 0.58,0 0.81,0 0.23,0 0.39,0 0.66,0 0.27,0 0.58,0 0.89,0.04 0.31,0 0.58,0.04 0.73,0.08 0.15,0 0.23,0.04 0.27,0.08 0.12,0.11 0.19,0.23 0.31,0.38 0.96,1.14 1.89,2.28 2.82,3.39 -0.12,0 -0.23,0 -0.5,0.04 -0.27,0 -0.66,0.08 -1,0.11 -0.35,0.04 -0.69,0.08 -1,0.11 -0.31,0 -0.62,0.08 -0.93,0.11 -0.31,0 -0.58,0.08 -0.81,0.08 -0.23,0 -0.39,0.04 -0.58,0.08 -0.19,0 -0.39,0 -0.62,0 -0.23,0 -0.46,0 -0.77,0 -0.27,0 -0.62,0 -0.93,-0.04 -0.31,0 -0.58,-0.04 -0.96,-0.11 -0.39,-0.04 -0.85,-0.11 -1.35,-0.23 -0.5,-0.11 -1,-0.23 -1.39,-0.31 -0.42,-0.11 -0.73,-0.19 -1.08,-0.3 0.42,0.19 0.89,0.38 1.5,0.53 0.62,0.19 1.39,0.34 1.97,0.42 0.58,0.11 0.93,0.11 1.27,0.15l0.19 -0.15zm29.85 22.84c-0.08,-0.49 -0.19,-0.99 -0.31,-1.45l-0.31 -1.41 -1.35 -0.23c-0.39,-0.08 -0.77,-0.11 -1.16,-0.19 0.39,-0.08 0.81,-0.11 1.23,-0.19l1.35 -0.23 0.31 -1.41c0.12,-0.5 0.19,-0.95 0.31,-1.45 0.08,0.5 0.19,0.99 0.31,1.45l0.31 1.41 1.35 0.23c0.39,0.08 0.77,0.11 1.16,0.19 -0.39,0.08 -0.81,0.11 -1.23,0.19l-1.35 0.23 -0.31 1.41c-0.12,0.49 -0.19,0.95 -0.31,1.45zm-36.49 6.59c0.97,-1.07 1.97,-2.06 3.05,-2.97 3.13,-2.63 6.75,-4.42 10.69,-5.6 1.93,-0.57 3.93,-1.03 6.02,-1.33 -2.04,-0.3 -4.05,-0.76 -5.94,-1.29 -3.93,-1.18 -7.52,-2.97 -10.69,-5.6 -1.89,-1.6 -3.59,-3.43 -5.09,-5.44 -0.31,2.02 -0.42,4.11 -0.42,6.28 0,5.44 0.81,10.77 2.39,15.91l0 0.04zm19.94 -50.63c3.36,1.87 6.21,4.11 8.72,7 2.66,3.04 4.82,6.66 6.21,10.43 0.77,2.17 1.31,4.49 1.66,6.81 0.35,-2.32 0.89,-4.64 1.66,-6.81 1.35,-3.77 3.55,-7.39 6.21,-10.43 1.74,-2.02 3.66,-3.73 5.79,-5.18 -5.21,-2.78 -10.88,-4.15 -16.97,-4.15 -4.78,0 -9.22,0.76 -13.27,2.32zm53.04 30.87c-0.96,1.07 -1.97,2.06 -3.05,2.97 -3.12,2.63 -6.75,4.42 -10.68,5.6 -1.93,0.57 -3.93,1.03 -6.02,1.33 2.04,0.3 4.05,0.76 5.94,1.33 3.93,1.18 7.52,2.97 10.68,5.6 1.89,1.56 3.59,3.43 5.05,5.37 0.31,-2.06 0.46,-4.19 0.46,-6.36 0,-5.37 -0.81,-10.62 -2.43,-15.8l0.04 -0.04zm-20.25 50.44c-3.24,-1.83 -5.98,-4.04 -8.41,-6.81 -2.66,-3.04 -4.82,-6.66 -6.21,-10.43 -0.77,-2.17 -1.31,-4.49 -1.66,-6.81 -0.35,2.32 -0.89,4.64 -1.66,6.81 -1.35,3.77 -3.55,7.39 -6.21,10.43 -1.74,1.98 -3.63,3.65 -5.71,5.14 5.17,2.74 10.76,4.07 16.74,4.07 4.67,0 9.03,-0.8 13.08,-2.4l0.04 0zm-34.14 -82.03c-8.18,-4.19 -18.25,-6.74 -27.16,-3.5l-0.39 0.15 -0.19 0.38c-3.39,6.66 -0.31,18.46 3.28,25.85 -2.7,5.79 -4.05,12.14 -4.05,19.03 0,6.89 1.23,13.13 3.66,18.84 -3.47,7.42 -6.29,18.73 -2.97,25.16l0.19 0.38 0.39 0.15c8.49,3.08 18.05,0.91 26.04,-2.93 5.36,2.06 11.19,3.05 17.55,3.05 6.87,0 13.27,-1.26 19.21,-3.73 8.22,4.26 18.36,6.85 27.35,3.62l0.39 -0.15 0.19 -0.38c3.47,-6.74 0.23,-18.8 -3.43,-26.15 2.78,-5.86 4.17,-12.11 4.17,-18.73 0,-6.62 -1.23,-13.13 -3.66,-18.84 3.43,-7.42 6.25,-18.73 2.97,-25.16l-0.19 -0.38 -0.39 -0.15c-8.49,-3.08 -18.01,-0.91 -26,2.93 -5.32,-2.02 -11.19,-3.04 -17.59,-3.04 -6.94,0 -13.42,1.22 -19.4,3.62l0.04 0zm47.87 21.89c0,0 0.27,0.08 0.46,0.15 0.15,0.04 0.39,0.11 0.58,0.19 0.19,0.08 0.35,0.11 0.58,0.19 0.23,0.08 0.46,0.15 0.66,0.23 0.19,0.08 0.31,0.11 0.42,0.15 0.12,0 0.23,0.08 0.39,0.11 0.15,0.04 0.35,0.11 0.58,0.19 0.19,0.08 0.42,0.15 0.66,0.23 -0.42,-0.11 -0.85,-0.23 -1.39,-0.38 -0.54,-0.15 -1.16,-0.3 -1.58,-0.42 -0.46,-0.11 -0.73,-0.19 -1,-0.27 -0.27,-0.08 -0.54,-0.15 -0.69,-0.19 -0.15,0 -0.15,-0.04 -0.35,0 -0.19,0 -0.58,0.04 -0.96,0.08 -0.39,0 -0.77,0 -1.16,0 -0.39,0 -0.85,-0.04 -1.23,-0.08 -0.42,0 -0.81,-0.08 -1.16,-0.08 -0.35,0 -0.66,-0.04 -0.93,-0.08 -0.27,0 -0.54,-0.04 -0.77,-0.08 -0.23,0 -0.39,-0.04 -0.58,-0.04 -0.73,0.88 -1.47,1.75 -2.16,2.55 -0.46,0.53 -0.89,1.07 -1.31,1.52 0.15,0 0.35,0 0.58,0.08 0.23,0 0.54,0.08 0.81,0.11 0.27,0 0.54,0.08 0.89,0.11 0.31,0 0.69,0.08 1.12,0.11 0.42,0.04 0.93,0.08 1.39,0.11 0.46,0 0.85,0.04 1.2,0.08 0.31,0 0.58,0 0.89,0 0.31,0 0.69,0 1.08,0 0.42,0 0.85,0 1.35,0 0.54,0 1.16,0 1.77,0 0.62,0 1.23,0 1.62,-0.04 0.39,0 0.58,0 0.73,0 -0.66,0.08 -1.31,0.11 -1.81,0.15 -0.54,0.04 -0.93,0.08 -1.27,0.08 -0.35,0 -0.66,0 -1.08,0.08 -0.42,0 -0.96,0.04 -1.43,0.08 -0.5,0 -0.93,0 -1.39,0 -0.46,0 -0.93,0 -1.39,0 -0.46,0 -0.89,0 -1.35,-0.04 -0.46,0 -0.93,-0.04 -1.47,-0.08 -0.5,-0.04 -1.08,-0.08 -1.5,-0.11 -0.42,-0.04 -0.77,-0.08 -1.08,-0.11 -0.93,1.07 -1.77,2.02 -2.58,2.86 -0.39,0.38 -0.73,0.76 -1.08,1.14 0.27,0.04 0.58,0.11 0.93,0.15 0.35,0.08 0.77,0.15 1.23,0.23 0.46,0.08 0.96,0.15 1.5,0.23 0.54,0.08 1.16,0.19 1.85,0.23 0.69,0.08 1.43,0.11 1.77,0.11 0.39,0 0.39,0 0.46,0 0.08,-0.04 0.23,-0.11 0.46,-0.23 0.23,-0.11 0.54,-0.27 0.85,-0.42 0.31,-0.15 0.66,-0.34 1.08,-0.53 0.42,-0.19 0.93,-0.46 1.47,-0.68 0.54,-0.27 1.08,-0.5 1.62,-0.76 -0.19,0.11 -0.42,0.23 -0.69,0.38 -0.31,0.15 -0.66,0.34 -1.08,0.57 -0.42,0.23 -0.89,0.46 -1.43,0.72 -0.54,0.27 -1.12,0.57 -1.47,0.76 -0.35,0.15 -0.42,0.19 -0.5,0.23 0.42,0 0.85,0 1.27,-0.04 0.42,0 0.85,-0.04 1.43,-0.08 0.58,0 1.27,-0.08 1.77,-0.08 0.5,0 0.85,0 1.12,0.04 0.23,0.04 0.39,0.11 0.54,0.19 -0.15,-0.04 -0.31,-0.11 -0.5,-0.11 -0.23,0 -0.5,0 -0.93,0 -0.46,0 -1.08,0.08 -1.85,0.15 -0.77,0.08 -1.66,0.15 -2.43,0.19 -0.73,0.04 -1.35,0.08 -2.04,0.04 -0.73,0 -1.54,-0.11 -2.43,-0.19 -0.89,-0.08 -1.81,-0.19 -2.55,-0.27 -0.77,-0.11 -1.35,-0.19 -1.93,-0.27 -0.69,0.72 -1.43,1.41 -2.16,2.09 -0.58,0.53 -1.16,1.07 -1.77,1.56 0.08,0.04 0.19,0.08 0.39,0.15 0.19,0.08 0.5,0.15 0.81,0.23 0.35,0.08 0.69,0.15 1.08,0.23 0.39,0.08 0.73,0.11 1.16,0.15 0.42,0 0.93,0.08 1.39,0.08 0.46,0 0.96,0 1.39,0 0.46,0 0.89,0 1.31,0 0.42,0 0.85,0.04 1.23,0.08 0.39,0 0.73,0.08 1.04,0.11 0.31,0 0.54,0.08 0.77,0.11 0.23,0 0.46,0.04 0.62,0.08 0.15,0 0.27,0 0.39,0 0.12,0 0.23,-0.04 0.35,-0.08 -0.08,0 -0.12,0.08 -0.23,0.08 -0.08,0 -0.19,0.04 -0.31,0.04 -0.12,0 -0.27,0 -0.46,0 -0.19,0 -0.42,-0.04 -0.69,-0.08 -0.27,0 -0.54,-0.04 -0.89,-0.08 -0.31,0 -0.69,0 -1,-0.04 -0.35,0 -0.66,0 -0.93,0 -0.31,0 -0.58,0 -0.85,0 -0.27,0 -0.58,0 -0.89,0.04 -0.35,0 -0.73,0.04 -1.16,0.04 -0.39,0 -0.77,0 -1.16,0 -0.39,0 -0.81,-0.08 -1.23,-0.11 -0.42,-0.04 -0.81,-0.11 -1.16,-0.19 -0.39,-0.08 -0.73,-0.19 -0.96,-0.27 -0.23,-0.08 -0.35,-0.11 -0.5,-0.19 -0.58,0.5 -1.16,0.99 -1.74,1.41 -1.23,0.99 -2.39,1.83 -3.36,2.47 0.42,-0.08 0.85,-0.11 1.31,-0.15 0.5,-0.04 1.08,-0.08 1.66,-0.04 0.58,0 1.2,0.08 1.7,0.11 0.46,0.04 0.81,0.11 1.16,0.15 0.35,0.04 0.69,0.08 1,0.08 0.31,0 0.62,0 1.08,-0.04 0.42,-0.04 1,-0.15 1.47,-0.27 0.46,-0.11 0.85,-0.23 1.12,-0.3 0.27,-0.11 0.46,-0.19 0.66,-0.27 -0.27,0.11 -0.5,0.27 -0.77,0.38 -0.27,0.11 -0.58,0.19 -0.85,0.27 -0.31,0.08 -0.58,0.15 -0.96,0.23 -0.35,0.08 -0.77,0.11 -1.2,0.15 -0.42,0.04 -0.81,0.08 -1.16,0.08 -0.35,0 -0.58,0 -0.73,0 -0.19,0 -0.31,-0.04 -0.46,-0.08 -0.15,0 -0.31,0 -0.58,-0.04 -0.27,0 -0.73,0 -1.12,0 -0.39,0 -0.77,0 -1.12,0.04 -0.35,0 -0.62,0.04 -0.89,0.08 -0.27,0 -0.58,0.08 -0.85,0.15 -0.31,0.04 -0.62,0.11 -0.89,0.15 -0.27,0.04 -0.54,0.08 -0.77,0.11 -0.54,0.34 -1.08,0.61 -1.58,0.88 2.47,0.42 5.05,0.76 8.25,0.72 3.63,-0.08 8.1,-0.65 12.03,-1.83 3.93,-1.18 7.33,-2.93 10.3,-5.37 2.93,-2.44 5.4,-5.6 7.29,-8.79 3.97,-6.66 8.29,-20.4 4.67,-27.45 -8.99,-3.24 -19.29,-0.38 -27.5,4.11 -3.28,1.79 -6.02,3.96 -8.49,6.81 -2.47,2.85 -4.67,6.36 -5.98,10.09 -1.35,3.73 -1.85,7.73 -2.04,10.89 -0.19,3.16 -0.04,5.48 0.23,7.54 0.12,0.88 0.27,1.71 0.46,2.51 0.46,-0.27 0.96,-0.53 1.58,-0.91 0.27,-0.19 0.58,-0.38 0.89,-0.57 0,-0.34 0,-0.68 0,-1.1 0,-0.42 -0.08,-0.99 -0.12,-1.45 -0.04,-0.46 -0.12,-0.84 -0.19,-1.26 -0.08,-0.42 -0.15,-0.91 -0.23,-1.33 -0.08,-0.42 -0.12,-0.8 -0.12,-1.18 0,-0.38 0,-0.8 0,-1.18 0,-0.38 0.12,-0.76 0.19,-1.1 0.12,-0.34 0.23,-0.68 0.39,-1.03 -0.04,0.11 -0.08,0.3 -0.15,0.46 -0.04,0.19 -0.12,0.42 -0.15,0.68 -0.04,0.27 -0.08,0.65 -0.08,1.07 0,0.46 0,0.99 0.08,1.52 0.08,0.53 0.23,1.1 0.35,1.79 0.15,0.69 0.27,1.48 0.39,2.13 0.08,0.65 0.12,1.14 0.19,1.6 0.19,-0.11 0.39,-0.23 0.54,-0.34 0.58,-0.38 1.04,-0.68 1.58,-1.1 0.54,-0.38 1.2,-0.88 1.93,-1.45 0,0 0.08,-0.04 0.08,-0.08 -0.15,-0.38 -0.31,-0.76 -0.46,-1.14 -0.15,-0.38 -0.27,-0.8 -0.39,-1.14 -0.12,-0.34 -0.19,-0.57 -0.27,-0.91 -0.08,-0.34 -0.19,-0.72 -0.27,-1.14 -0.08,-0.42 -0.15,-0.8 -0.23,-1.22 -0.08,-0.42 -0.12,-0.88 -0.15,-1.26 0,-0.38 0,-0.65 0,-0.95 0,-0.27 0,-0.53 0,-0.8 0,-0.23 0,-0.42 0,-0.72 0,-0.27 0,-0.65 0,-1.07 0,-0.42 -0.04,-0.91 -0.08,-1.33 -0.04,-0.42 -0.08,-0.8 -0.15,-1.14 -0.04,-0.3 -0.08,-0.57 -0.08,-0.76 0,-0.19 0,-0.34 0,-0.46 0,-0.11 0,-0.23 0.04,-0.31 0,-0.08 0,-0.11 0.04,-0.15 0,0.15 0,0.3 0,0.46 0,0.15 0,0.3 0,0.46 0,0.15 0.04,0.3 0.08,0.49 0.04,0.23 0.12,0.5 0.15,0.88 0.04,0.38 0.08,0.84 0.12,1.22 0,0.38 0.04,0.65 0.08,0.88 0,0.23 0,0.38 0,0.53 0,0.15 0,0.23 0,0.34 0.12,-0.34 0.19,-0.72 0.31,-1.1 0.12,-0.38 0.23,-0.8 0.39,-1.29 0.15,-0.53 0.35,-1.14 0.46,-1.52 0.12,-0.38 0.19,-0.49 0.23,-0.61 -0.15,0.65 -0.35,1.26 -0.46,1.75 -0.12,0.49 -0.23,0.8 -0.31,1.07 -0.08,0.27 -0.15,0.46 -0.19,0.68 -0.08,0.23 -0.12,0.5 -0.19,0.69 -0.04,0.23 -0.12,0.38 -0.15,0.53 -0.04,0.15 -0.08,0.27 -0.08,0.3 0,0.08 0,0.08 0,0.27 0,0.19 0,0.57 0.04,0.99 0,0.42 0.08,0.88 0.15,1.33 0.08,0.5 0.19,0.99 0.31,1.52 0.12,0.53 0.27,1.03 0.42,1.52 0.15,0.5 0.31,0.95 0.5,1.37 0.15,0.46 0.35,0.84 0.54,1.26 0.54,-0.46 1.12,-0.91 1.73,-1.45 0.81,-0.68 1.62,-1.48 2.43,-2.25 -0.35,-0.84 -0.69,-1.67 -1.04,-2.59 -0.35,-0.91 -0.62,-1.94 -0.85,-2.78 -0.23,-0.88 -0.39,-1.56 -0.5,-2.28 -0.12,-0.72 -0.19,-1.45 -0.23,-2.21 -0.04,-0.76 0,-1.56 0,-2.4 0,-0.84 0.08,-1.75 0.12,-2.47 0,-0.72 0,-1.22 0,-1.6 0,-0.34 -0.08,-0.53 -0.15,-0.72 0.08,0.08 0.15,0.11 0.23,0.27 0.08,0.15 0.12,0.38 0.12,1.07 0,0.68 0,1.83 0,3.08 0,1.26 0.08,2.63 0.19,3.73 0.15,1.14 0.39,2.06 0.73,3.2 0.35,1.14 0.81,2.59 1.16,3.5 0.35,0.91 0.54,1.33 0.73,1.75 0.66,-0.61 1.23,-1.22 1.81,-1.83 0.62,-0.61 1.16,-1.18 1.7,-1.79 -0.12,-0.57 -0.27,-1.14 -0.5,-2.21 -0.23,-1.07 -0.58,-2.63 -0.81,-3.88 -0.23,-1.26 -0.39,-2.25 -0.42,-2.86 -0.08,-0.57 -0.08,-0.76 -0.08,-0.84 0,-0.08 0,-0.08 -0.04,-0.19 -0.04,-0.08 -0.12,-0.23 -0.39,-0.72 -0.27,-0.49 -0.69,-1.33 -1.08,-2.02 -0.39,-0.69 -0.66,-1.26 -0.93,-1.79 0.27,0.34 0.54,0.65 0.93,1.33 0.39,0.65 0.89,1.64 1.16,2.17 0.27,0.53 0.31,0.61 0.39,0.65 0,-0.8 -0.04,-1.6 -0.04,-2.44 0,-0.84 0,-1.71 0,-2.36 0,-0.65 0.08,-1.1 0.15,-1.56 0,1.03 0.04,2.06 0.04,3.01 0,0.95 0,1.9 0.08,2.7 0.04,0.84 0.12,1.56 0.35,2.74 0.19,1.18 0.54,2.78 0.85,4.11 0.31,1.37 0.62,2.47 0.93,3.58 0.58,-0.65 1.16,-1.29 1.66,-1.83 0.54,-0.61 1,-1.1 1.5,-1.71 -0.12,-0.84 -0.23,-1.67 -0.31,-2.47 -0.12,-0.8 -0.23,-1.6 -0.31,-2.32 -0.12,-0.72 -0.19,-1.37 -0.27,-1.87 -0.08,-0.49 -0.12,-0.88 -0.15,-1.41 0,-0.53 0,-1.18 0,-1.83 0.04,-0.65 0.12,-1.26 0.27,-1.94 0.12,-0.68 0.27,-1.45 0.42,-1.98 0.12,-0.53 0.23,-0.8 0.31,-1.07 -0.08,0.34 -0.15,0.65 -0.23,0.95 -0.08,0.31 -0.12,0.57 -0.19,0.91 -0.08,0.34 -0.12,0.72 -0.15,1.07 -0.04,0.34 -0.08,0.68 -0.12,1.03 0,0.34 0,0.72 0,1.14 0,0.42 0,0.88 0,1.22 0,0.34 0,0.53 0.08,0.76 0,0.19 0.08,0.42 0.12,0.76 0.04,0.34 0.15,0.84 0.23,1.29 0.08,0.46 0.15,0.91 0.23,1.29 0.08,0.38 0.12,0.72 0.19,1.18 0.08,0.46 0.15,0.99 0.23,1.45 0.08,0.46 0.15,0.8 0.23,1.14 0.42,-0.49 0.89,-1.03 1.35,-1.56 0.62,-0.69 1.16,-1.37 1.62,-1.9 0.15,-0.19 0.31,-0.34 0.46,-0.53 0,-0.27 0,-0.5 0,-1.22 0,-0.72 -0.04,-1.87 -0.12,-2.82 -0.04,-0.91 -0.12,-1.56 -0.19,-2.09 -0.08,-0.53 -0.19,-0.91 -0.23,-1.41 0,-0.49 0,-1.14 0.08,-1.83 0.08,-0.68 0.19,-1.37 0.35,-1.9 0.12,-0.53 0.27,-0.88 0.42,-1.22 -0.08,0.23 -0.12,0.46 -0.19,0.84 -0.08,0.34 -0.15,0.84 -0.23,1.22 -0.08,0.42 -0.12,0.72 -0.15,1.1 0,0.38 -0.04,0.8 -0.04,1.1 0,0.34 0,0.57 0.08,0.88 0.04,0.3 0.15,0.61 0.23,1.1 0.12,0.46 0.19,1.07 0.27,1.87 0.08,0.76 0.12,1.71 0.15,2.36 0,0.65 0.04,0.99 0.08,1.37 0.08,-0.08 0.15,-0.19 0.23,-0.27 0.42,-0.5 0.93,-1.1 1.43,-1.64 0.46,-0.53 0.89,-1.03 1.27,-1.48 0.08,-0.08 0.15,-0.15 0.23,-0.27 0.04,-0.19 0.08,-0.38 0.15,-0.69 0.04,-0.27 0.12,-0.61 0.15,-0.99 0.04,-0.34 0.08,-0.72 0.12,-1.07 0,-0.34 0.04,-0.65 0.04,-0.8 0,-0.15 0,-0.15 0,-0.23 0,-0.04 -0.04,-0.11 -0.08,-0.23 -0.04,-0.11 -0.08,-0.27 -0.15,-0.46 -0.04,-0.19 -0.12,-0.38 -0.19,-0.57 -0.08,-0.23 -0.15,-0.42 -0.23,-0.72 -0.08,-0.27 -0.19,-0.61 -0.31,-0.91 -0.12,-0.3 -0.19,-0.57 -0.27,-0.88 -0.08,-0.3 -0.19,-0.61 -0.31,-0.91 0.04,0.11 0.08,0.19 0.15,0.38 0.08,0.15 0.15,0.38 0.23,0.61 0.08,0.23 0.15,0.42 0.23,0.65 0.08,0.23 0.15,0.46 0.23,0.65 0.08,0.23 0.15,0.42 0.23,0.61 0.08,0.19 0.15,0.38 0.19,0.57 0.08,0.19 0.12,0.38 0.19,0.5 0.04,0.11 0.08,0.15 0.08,0.23 0,-0.15 0,-0.31 0,-0.46 0,-0.15 0,-0.34 -0.04,-0.49 0,-0.15 -0.08,-0.27 -0.08,-0.42 0,-0.15 -0.04,-0.3 -0.08,-0.42 0,-0.15 0,-0.27 0,-0.38 0,-0.15 0,-0.3 0,-0.46 0,-0.15 0.04,-0.31 0.08,-0.42 0,-0.15 0.08,-0.27 0.12,-0.46 0.04,-0.19 0.12,-0.42 0.19,-0.65 0.08,-0.23 0.15,-0.38 0.23,-0.53 0.08,-0.15 0.15,-0.31 0.23,-0.46 0.08,-0.15 0.15,-0.27 0.23,-0.42 -0.08,0.15 -0.15,0.34 -0.23,0.53 -0.08,0.19 -0.19,0.46 -0.27,0.68 -0.08,0.23 -0.15,0.46 -0.19,0.72 -0.08,0.23 -0.12,0.46 -0.15,0.68 0,0.23 -0.04,0.42 -0.04,0.65 0,0.19 0,0.38 0.04,0.61 0,0.19 0.12,0.42 0.15,0.65 0.04,0.19 0.08,0.38 0.12,0.65 0,0.23 0.08,0.57 0.08,0.91 0,0.34 0,0.72 0,1.1 0,0.38 0,0.76 -0.08,1.07 0,0.3 -0.08,0.57 -0.12,0.84 0.08,-0.08 0.15,-0.19 0.23,-0.27 0.39,-0.46 0.81,-0.91 1.23,-1.37 0.42,-0.46 0.85,-0.91 1.23,-1.33 0.15,-0.19 0.35,-0.34 0.5,-0.53 0.08,-0.19 0.15,-0.42 0.23,-0.65 0.08,-0.27 0.15,-0.57 0.23,-0.88 0.08,-0.31 0.15,-0.65 0.23,-0.95 0.08,-0.31 0.12,-0.61 0.15,-0.84 0,-0.23 0.04,-0.46 0.04,-0.65 0,-0.19 0,-0.42 0,-0.65 0,-0.23 0.04,-0.53 0.08,-0.84 0.04,-0.31 0.12,-0.69 0.19,-0.95 0.08,-0.31 0.12,-0.5 0.15,-0.72 0,0.08 0,0.15 -0.04,0.31 0,0.15 -0.04,0.38 -0.08,0.57 0,0.19 0,0.3 -0.04,0.46 0,0.15 0,0.31 -0.04,0.46 0,0.15 0,0.3 0,0.46 0,0.15 0,0.31 0,0.46 0,0.15 0,0.27 0,0.42 0,0.15 0,0.27 0,0.42 0,0.15 0,0.34 0,0.57 0,0.23 -0.04,0.5 -0.08,0.72 0,0.23 -0.08,0.42 -0.12,0.65 0,0.19 -0.08,0.42 -0.12,0.57 0,0.15 -0.04,0.23 -0.08,0.34 0.39,-0.42 0.89,-0.91 1.35,-1.41 0.46,-0.5 0.97,-0.99 1.47,-1.45 0.08,-0.31 0.19,-0.61 0.31,-0.91 0.12,-0.34 0.31,-0.72 0.46,-1.07 0.15,-0.34 0.31,-0.72 0.42,-0.99 0.12,-0.3 0.23,-0.49 0.27,-0.68 0.08,-0.15 0.08,-0.27 0.12,-0.42 0,0.23 -0.08,0.42 -0.15,0.72 -0.08,0.31 -0.19,0.72 -0.31,1.1 -0.12,0.38 -0.23,0.72 -0.31,0.99 -0.08,0.27 -0.12,0.46 -0.19,0.61 0.35,-0.34 0.69,-0.65 1,-0.95 0.5,-0.49 1,-0.91 1.47,-1.33 0.46,-0.42 0.96,-0.84 1.39,-1.22 0.46,-0.38 0.89,-0.72 1.2,-0.95 0.31,-0.23 0.54,-0.38 0.73,-0.53 -1.12,1.07 -2.28,2.13 -3.47,3.27 -0.27,0.23 -0.5,0.5 -0.77,0.76 1.08,0 2.12,0.08 3.2,0.08l-0.62 0.08c-0.62,0.08 -1.85,0.19 -3.09,0.34 -0.81,0.8 -1.66,1.64 -2.51,2.51 -0.42,0.42 -0.81,0.84 -1.23,1.29 0.23,0 0.5,-0.04 0.81,-0.08 0.31,0 0.73,0 1.04,-0.04 0.31,0 0.58,0 0.77,0 0.19,0 0.35,0 0.54,0.04 0.19,0 0.39,0 0.69,-0.04 0.31,0 0.69,-0.08 1.08,-0.15 0.39,-0.08 0.69,-0.11 1.04,-0.19 -0.08,0 -0.19,0.08 -0.35,0.11 -0.19,0.04 -0.46,0.11 -0.69,0.15 -0.23,0.08 -0.46,0.11 -0.66,0.15 -0.19,0.04 -0.39,0.08 -0.54,0.11 -0.15,0 -0.27,0.04 -0.35,0.04 -0.12,0 -0.23,0 -0.35,0 -0.12,0 -0.23,0 -0.39,0 -0.12,0 -0.27,0 -0.42,0 -0.15,0 -0.35,0 -0.54,0.04 -0.19,0 -0.39,0.04 -0.62,0.08 -0.19,0 -0.39,0.04 -0.62,0.08 -0.23,0 -0.46,0.08 -0.62,0.08 -0.15,0 -0.19,0 -0.27,0 -0.73,0.84 -1.54,1.71 -2.39,2.74 -0.31,0.34 -0.58,0.69 -0.93,1.07 0.04,0 0.12,0 0.19,0 0.08,0 0.19,0 0.39,-0.04 0.15,0 0.39,0 0.73,-0.04 0.35,0 0.77,0 1.16,0 0.39,0 0.73,0.04 0.96,0.08 0.23,0.04 0.39,0.08 0.58,0.11 0.19,0 0.42,0.08 0.7,0.08 0.27,0 0.54,0 0.81,0 0.27,0 0.5,-0.04 0.73,-0.11 0.27,-0.04 0.54,-0.11 0.77,-0.15 0.27,-0.08 0.46,-0.11 0.77,-0.19 0.31,-0.08 0.66,-0.19 0.89,-0.27 0.23,-0.08 0.27,-0.08 0.35,-0.11 -0.27,0.11 -0.5,0.23 -0.77,0.34 -0.27,0.11 -0.58,0.19 -0.93,0.31 -0.35,0.11 -0.77,0.19 -1.08,0.27 -0.31,0.08 -0.54,0.11 -0.77,0.15 -0.23,0 -0.46,0.04 -0.69,0.04 -0.23,0 -0.42,0 -0.62,0 -0.19,0 -0.39,-0.04 -0.54,-0.08 -0.15,0 -0.31,-0.04 -0.54,-0.08 -0.23,0 -0.5,0 -0.77,0 -0.27,0 -0.54,0 -0.81,0.04 -0.27,0 -0.54,0.08 -0.85,0.11 -0.27,0.04 -0.58,0.11 -0.77,0.15 -0.19,0.04 -0.31,0.08 -0.42,0.11 -0.96,1.14 -2.01,2.36 -3.09,3.62 0.08,0 0.19,0 0.35,0 0.15,0 0.42,0 0.69,0 0.27,0 0.58,0 0.85,0 0.27,0 0.46,0 0.73,0.04 0.27,0 0.54,0.04 0.81,0.08 0.27,0 0.46,0.08 0.66,0.08 0.19,0 0.31,0.04 0.46,0.08 0.12,0 0.23,0.04 0.35,0.08 0.12,0 0.23,0 0.35,0.04 0.12,0 0.27,0 0.42,0 0.15,0 0.31,0 0.5,0 0.19,0 0.46,0 0.73,-0.04 0.27,0 0.5,-0.08 0.77,-0.11 0.27,-0.04 0.54,-0.11 0.77,-0.15 0.23,-0.04 0.42,-0.08 0.73,-0.19 0.31,-0.08 0.73,-0.19 1.12,-0.3 -0.23,0.08 -0.5,0.19 -0.85,0.3 -0.35,0.11 -0.77,0.23 -1.2,0.34 -0.42,0.11 -0.85,0.19 -1.23,0.27 -0.39,0.08 -0.69,0.11 -1,0.11 -0.31,0 -0.58,0 -0.77,0 -0.23,0 -0.39,0 -0.54,-0.04 -0.15,0 -0.31,-0.04 -0.46,-0.08 -0.15,0 -0.35,-0.04 -0.58,-0.08 -0.23,0 -0.54,0 -0.81,-0.04 -0.31,0 -0.58,0 -0.81,0 -0.23,0 -0.39,0 -0.66,0 -0.27,0 -0.58,0 -0.89,0.04 -0.31,0 -0.58,0.04 -0.73,0.08 -0.15,0 -0.23,0.04 -0.27,0.08 -0.12,0.11 -0.19,0.27 -0.31,0.38 -0.96,1.14 -1.89,2.28 -2.82,3.39 0.12,0 0.23,0 0.5,0.04 0.27,0 0.66,0.08 1,0.11 0.35,0.04 0.69,0.08 1,0.11 0.31,0 0.62,0.08 0.93,0.11 0.31,0 0.58,0.08 0.81,0.08 0.23,0 0.39,0.04 0.58,0.08 0.19,0 0.39,0 0.62,0 0.23,0 0.46,0 0.77,0 0.27,0 0.62,0 0.93,-0.04 0.31,0 0.58,-0.04 0.96,-0.11 0.39,-0.04 0.85,-0.11 1.35,-0.23 0.5,-0.11 1,-0.23 1.39,-0.3 0.42,-0.11 0.73,-0.19 1.08,-0.3 -0.42,0.19 -0.89,0.38 -1.5,0.53 -0.62,0.19 -1.39,0.34 -1.97,0.42 -0.58,0.11 -0.93,0.11 -1.27,0.15l-0.12 -0.23zm-59.9 39.13c0,0 -0.27,-0.08 -0.46,-0.15 -0.15,-0.04 -0.39,-0.11 -0.58,-0.19 -0.19,-0.08 -0.35,-0.11 -0.58,-0.19 -0.23,-0.08 -0.46,-0.15 -0.66,-0.23 -0.19,-0.08 -0.31,-0.11 -0.42,-0.15 -0.12,0 -0.23,-0.08 -0.39,-0.11 -0.15,-0.04 -0.35,-0.11 -0.58,-0.19 -0.19,-0.08 -0.42,-0.15 -0.66,-0.23 0.42,0.11 0.85,0.23 1.39,0.38 0.54,0.15 1.16,0.3 1.58,0.42 0.46,0.11 0.73,0.19 1,0.27 0.27,0.08 0.54,0.15 0.69,0.19 0.15,0.04 0.15,0.04 0.35,0 0.19,0 0.58,-0.04 0.96,-0.08 0.39,0 0.77,0 1.16,0 0.39,0 0.85,0.04 1.23,0.08 0.42,0 0.81,0.08 1.16,0.08 0.35,0 0.66,0.04 0.93,0.08 0.27,0 0.54,0.04 0.77,0.08 0.23,0 0.39,0 0.58,0.04 0.73,-0.91 1.47,-1.75 2.16,-2.55 0.46,-0.53 0.89,-1.03 1.31,-1.52 -0.15,0 -0.35,0 -0.58,-0.08 -0.23,0 -0.54,-0.08 -0.81,-0.11 -0.27,0 -0.54,-0.08 -0.89,-0.11 -0.31,0 -0.69,-0.08 -1.12,-0.11 -0.42,-0.04 -0.93,-0.08 -1.39,-0.11 -0.46,0 -0.85,-0.04 -1.2,-0.08 -0.31,0 -0.58,0 -0.89,0 -0.31,0 -0.69,0 -1.08,0 -0.42,0 -0.85,0 -1.35,0 -0.54,0 -1.16,0 -1.77,0 -0.62,0 -1.23,0.04 -1.62,0.04 -0.39,0 -0.58,0 -0.73,0 0.66,-0.08 1.31,-0.11 1.81,-0.15 0.5,-0.04 0.93,-0.08 1.27,-0.08 0.35,0 0.66,0 1.08,-0.08 0.42,0 0.96,-0.04 1.43,-0.08 0.5,0 0.93,0 1.39,0 0.46,0 0.93,0 1.39,0 0.46,0 0.89,0 1.35,0.04 0.46,0 0.93,0.04 1.47,0.08 0.5,0.04 1.08,0.08 1.5,0.11 0.42,0.04 0.77,0.08 1.08,0.11 0.93,-1.07 1.81,-2.02 2.58,-2.86 0.39,-0.38 0.73,-0.76 1.08,-1.14 -0.27,-0.04 -0.58,-0.11 -0.93,-0.15 -0.35,-0.08 -0.77,-0.15 -1.23,-0.23 -0.46,-0.08 -0.96,-0.15 -1.5,-0.23 -0.54,-0.08 -1.16,-0.19 -1.85,-0.23 -0.69,-0.04 -1.43,-0.11 -1.77,-0.11 -0.39,0 -0.39,0 -0.46,0 -0.08,0.04 -0.23,0.11 -0.46,0.23 -0.23,0.11 -0.54,0.27 -0.85,0.42 -0.31,0.15 -0.66,0.34 -1.08,0.53 -0.42,0.19 -0.93,0.46 -1.47,0.69 -0.54,0.27 -1.08,0.49 -1.62,0.76 0.19,-0.11 0.42,-0.23 0.69,-0.38 0.31,-0.15 0.66,-0.34 1.08,-0.57 0.42,-0.23 0.89,-0.46 1.43,-0.72 0.54,-0.27 1.12,-0.57 1.47,-0.76 0.35,-0.15 0.42,-0.19 0.5,-0.23 -0.42,0 -0.85,0 -1.27,0.04 -0.42,0 -0.85,0.04 -1.43,0.08 -0.58,0 -1.27,0.08 -1.77,0.08 -0.54,0 -0.85,0 -1.12,-0.04 -0.23,-0.04 -0.39,-0.11 -0.54,-0.19 0.15,0.04 0.31,0.11 0.54,0.11 0.19,0 0.5,0 0.93,0 0.46,0 1.08,-0.08 1.85,-0.15 0.77,-0.08 1.66,-0.15 2.43,-0.19 0.77,-0.04 1.35,-0.08 2.04,-0.04 0.73,0 1.54,0.11 2.43,0.19 0.89,0.08 1.81,0.19 2.55,0.27 0.77,0.08 1.35,0.19 1.93,0.27 0.69,-0.72 1.43,-1.41 2.16,-2.09 0.58,-0.53 1.16,-1.07 1.77,-1.56 -0.08,-0.04 -0.19,-0.08 -0.39,-0.15 -0.19,-0.08 -0.5,-0.15 -0.81,-0.23 -0.35,-0.08 -0.69,-0.15 -1.08,-0.23 -0.39,-0.08 -0.73,-0.11 -1.16,-0.15 -0.42,0 -0.93,-0.08 -1.39,-0.08 -0.46,0 -0.96,0 -1.39,0 -0.46,0 -0.89,0 -1.31,0 -0.42,0 -0.85,-0.04 -1.23,-0.08 -0.39,0 -0.73,-0.08 -1.04,-0.11 -0.31,0 -0.54,-0.08 -0.77,-0.11 -0.23,0 -0.46,-0.04 -0.62,-0.08 -0.15,0 -0.27,0 -0.39,0 -0.12,0 -0.23,0.04 -0.35,0.08 0.08,0 0.12,-0.08 0.23,-0.08 0.08,0 0.19,-0.04 0.31,-0.04 0.12,0 0.27,0 0.46,0 0.19,0 0.42,0.04 0.69,0.08 0.27,0 0.54,0.04 0.89,0.08 0.31,0 0.69,0 1,0.04 0.31,0.04 0.66,0 0.93,0 0.31,0 0.58,0 0.85,0 0.27,0 0.58,0 0.89,-0.04 0.35,0 0.73,-0.04 1.16,-0.04 0.39,0 0.77,0 1.16,0 0.39,0 0.81,0.08 1.23,0.11 0.39,0.04 0.81,0.11 1.16,0.19 0.39,0.08 0.73,0.19 0.96,0.27 0.23,0.08 0.35,0.11 0.5,0.19 0.58,-0.49 1.16,-0.99 1.74,-1.41 1.23,-0.99 2.39,-1.83 3.36,-2.47 -0.42,0.08 -0.85,0.11 -1.31,0.15 -0.5,0.04 -1.08,0.08 -1.66,0.04 -0.58,0 -1.2,-0.08 -1.7,-0.11 -0.46,-0.04 -0.81,-0.11 -1.16,-0.15 -0.35,-0.04 -0.69,-0.08 -1,-0.08 -0.31,0 -0.62,0 -1.08,0.08 -0.42,0.04 -1,0.15 -1.47,0.27 -0.46,0.11 -0.85,0.23 -1.12,0.3 -0.27,0.11 -0.46,0.19 -0.66,0.27 0.27,-0.11 0.5,-0.27 0.77,-0.38 0.27,-0.11 0.58,-0.19 0.85,-0.27 0.31,-0.08 0.58,-0.15 0.96,-0.23 0.35,-0.08 0.77,-0.11 1.2,-0.15 0.42,-0.04 0.81,-0.08 1.16,-0.08 0.31,0 0.58,0 0.73,0 0.19,0 0.31,0.04 0.46,0.08 0.15,0 0.31,0 0.58,0.04 0.27,0 0.73,0 1.12,0 0.39,0 0.77,0 1.12,-0.04 0.35,0 0.62,-0.04 0.89,-0.08 0.27,0 0.58,-0.08 0.85,-0.15 0.31,-0.04 0.62,-0.11 0.89,-0.15 0.27,-0.04 0.54,-0.08 0.77,-0.11 0.54,-0.34 1.08,-0.61 1.58,-0.88 -2.47,-0.42 -5.05,-0.76 -8.26,-0.72 -3.62,0.08 -8.1,0.65 -12.03,1.83 -3.93,1.18 -7.33,2.93 -10.3,5.37 -2.93,2.44 -5.4,5.6 -7.29,8.79 -3.97,6.66 -8.29,20.4 -4.67,27.45 8.99,3.24 19.29,0.38 27.5,-4.11 3.28,-1.79 6.02,-3.96 8.49,-6.81 2.47,-2.85 4.67,-6.36 5.98,-10.09 1.35,-3.73 1.85,-7.73 2.04,-10.89 0.19,-3.16 0.04,-5.48 -0.23,-7.54 -0.12,-0.88 -0.27,-1.71 -0.46,-2.51 -0.46,0.27 -0.96,0.53 -1.58,0.91 -0.27,0.15 -0.58,0.38 -0.89,0.57 0,0.34 0,0.68 0,1.1 0,0.42 0.08,0.99 0.12,1.45 0.04,0.46 0.12,0.84 0.19,1.26 0.08,0.42 0.15,0.91 0.23,1.33 0.08,0.42 0.12,0.8 0.12,1.18 0,0.38 0,0.8 0,1.18 0,0.38 -0.12,0.76 -0.19,1.1 -0.12,0.34 -0.23,0.69 -0.39,1.03 0.04,-0.11 0.08,-0.27 0.15,-0.46 0.04,-0.19 0.12,-0.42 0.15,-0.69 0.04,-0.27 0.08,-0.65 0.08,-1.07 0,-0.46 0,-0.99 -0.08,-1.52 -0.08,-0.53 -0.19,-1.1 -0.35,-1.79 -0.15,-0.69 -0.27,-1.48 -0.39,-2.13 -0.08,-0.65 -0.12,-1.14 -0.15,-1.6 -0.19,0.11 -0.39,0.23 -0.54,0.34 -0.58,0.38 -1.04,0.68 -1.58,1.1 -0.54,0.38 -1.2,0.88 -1.93,1.45 0,0 -0.08,0.04 -0.08,0.08 0.15,0.38 0.31,0.76 0.46,1.14 0.15,0.38 0.27,0.8 0.39,1.14 0.12,0.34 0.19,0.57 0.27,0.91 0.08,0.34 0.19,0.72 0.27,1.14 0.08,0.42 0.15,0.8 0.23,1.22 0.08,0.42 0.12,0.88 0.15,1.26 0,0.38 0,0.65 0,0.95 0,0.27 0,0.53 0,0.8 0,0.23 0,0.42 0,0.72 0,0.27 0,0.65 0,1.07 0,0.42 0.04,0.91 0.08,1.33 0.04,0.42 0.08,0.8 0.15,1.14 0.04,0.3 0.08,0.57 0.08,0.76 0,0.19 0,0.34 0,0.46 0,0.11 0,0.23 -0.04,0.31 0,0.08 0,0.11 -0.04,0.15 0,-0.15 0,-0.3 0,-0.46 0,-0.15 0,-0.3 0,-0.46 0,-0.15 -0.04,-0.31 -0.08,-0.5 -0.04,-0.23 -0.12,-0.49 -0.15,-0.88 -0.04,-0.38 -0.08,-0.84 -0.12,-1.22 0,-0.38 -0.04,-0.65 -0.08,-0.88 0,-0.23 0,-0.38 0,-0.53 0,-0.15 0,-0.23 0,-0.34 -0.12,0.34 -0.19,0.72 -0.31,1.1 -0.12,0.38 -0.23,0.8 -0.39,1.29 -0.15,0.53 -0.35,1.14 -0.46,1.52 -0.12,0.38 -0.19,0.5 -0.23,0.61 0.15,-0.65 0.35,-1.26 0.46,-1.75 0.12,-0.49 0.23,-0.8 0.31,-1.07 0.08,-0.27 0.15,-0.46 0.19,-0.68 0.08,-0.23 0.12,-0.5 0.19,-0.69 0.08,-0.23 0.12,-0.38 0.15,-0.53 0.04,-0.15 0.08,-0.27 0.08,-0.3 0,-0.08 0,-0.08 0,-0.27 0,-0.19 0,-0.57 -0.04,-0.99 0,-0.42 -0.08,-0.88 -0.15,-1.33 -0.08,-0.5 -0.19,-0.99 -0.31,-1.52 -0.12,-0.53 -0.27,-1.03 -0.42,-1.52 -0.15,-0.49 -0.31,-0.95 -0.5,-1.37 -0.19,-0.46 -0.35,-0.84 -0.54,-1.26 -0.54,0.46 -1.12,0.91 -1.74,1.45 -0.81,0.69 -1.62,1.45 -2.43,2.25 0.35,0.84 0.69,1.67 1.04,2.59 0.35,0.91 0.62,1.94 0.85,2.78 0.23,0.88 0.39,1.56 0.5,2.28 0.12,0.72 0.19,1.45 0.23,2.21 0.04,0.76 0,1.56 0,2.4 0,0.84 -0.08,1.75 -0.12,2.47 0,0.72 0,1.22 0,1.6 0,0.34 0.08,0.53 0.15,0.72 -0.08,-0.08 -0.15,-0.11 -0.23,-0.27 -0.08,-0.15 -0.12,-0.38 -0.12,-1.07 0,-0.68 0,-1.83 0,-3.08 0,-1.26 -0.08,-2.63 -0.19,-3.73 -0.15,-1.14 -0.39,-2.06 -0.73,-3.2 -0.35,-1.18 -0.81,-2.59 -1.16,-3.5 -0.35,-0.91 -0.54,-1.33 -0.73,-1.75 -0.62,0.61 -1.23,1.22 -1.81,1.83 -0.62,0.61 -1.16,1.18 -1.7,1.79 0.12,0.57 0.27,1.14 0.5,2.21 0.23,1.07 0.58,2.63 0.81,3.88 0.23,1.26 0.39,2.25 0.42,2.85 0.08,0.57 0.08,0.76 0.08,0.84 0,0.08 0,0.08 0.04,0.19 0.04,0.08 0.12,0.23 0.39,0.72 0.27,0.49 0.69,1.33 1.08,2.02 0.39,0.69 0.66,1.26 0.93,1.79 -0.27,-0.34 -0.54,-0.65 -0.93,-1.33 -0.39,-0.65 -0.89,-1.64 -1.16,-2.17 -0.27,-0.53 -0.31,-0.61 -0.39,-0.65 0,0.8 0.04,1.6 0.04,2.44 0,0.84 0,1.71 0,2.36 0,0.65 -0.08,1.1 -0.15,1.56 0,-1.03 0,-2.06 -0.04,-3.01 0,-0.99 -0,-1.9 -0.08,-2.7 -0.04,-0.84 -0.12,-1.56 -0.35,-2.74 -0.19,-1.18 -0.54,-2.78 -0.85,-4.11 -0.31,-1.37 -0.62,-2.47 -0.93,-3.58 -0.58,0.65 -1.16,1.29 -1.66,1.83 -0.54,0.61 -1,1.1 -1.5,1.71 0.12,0.84 0.23,1.67 0.31,2.47 0.12,0.8 0.23,1.6 0.31,2.32 0.12,0.72 0.19,1.37 0.27,1.87 0.08,0.49 0.12,0.88 0.15,1.41 0,0.53 0,1.18 0,1.79 -0.04,0.65 -0.12,1.26 -0.27,1.94 -0.12,0.69 -0.27,1.45 -0.42,1.98 -0.12,0.53 -0.23,0.8 -0.31,1.07 0.08,-0.34 0.15,-0.65 0.23,-0.95 0.08,-0.3 0.12,-0.57 0.19,-0.91 0.08,-0.34 0.12,-0.72 0.15,-1.1 0.04,-0.34 0.08,-0.69 0.12,-0.99 0,-0.34 0,-0.72 0,-1.14 0,-0.42 0,-0.88 0,-1.22 0,-0.34 0,-0.53 -0.08,-0.76 0,-0.19 -0.08,-0.42 -0.12,-0.76 -0.04,-0.34 -0.12,-0.84 -0.19,-1.29 -0.08,-0.46 -0.15,-0.91 -0.23,-1.29 -0.08,-0.38 -0.12,-0.76 -0.19,-1.18 -0.08,-0.46 -0.15,-0.99 -0.23,-1.45 -0.08,-0.46 -0.15,-0.8 -0.23,-1.14 -0.42,0.49 -0.89,1.03 -1.35,1.56 -0.62,0.72 -1.16,1.37 -1.62,1.9 -0.15,0.19 -0.31,0.34 -0.46,0.53 0,0.27 0,0.5 0,1.22 0,0.72 0.04,1.87 0.08,2.82 0.04,0.91 0.12,1.56 0.19,2.09 0.08,0.53 0.19,0.91 0.23,1.41 0,0.49 0,1.14 -0.08,1.83 -0.08,0.69 -0.19,1.37 -0.35,1.9 -0.12,0.53 -0.27,0.88 -0.42,1.22 0.08,-0.23 0.12,-0.46 0.19,-0.84 0.08,-0.34 0.15,-0.84 0.23,-1.22 0.08,-0.42 0.12,-0.72 0.15,-1.1 0,-0.38 0.04,-0.8 0.04,-1.1 0,-0.34 0,-0.57 -0.08,-0.88 -0.04,-0.3 -0.15,-0.61 -0.23,-1.1 -0.12,-0.46 -0.19,-1.07 -0.27,-1.87 -0.08,-0.76 -0.12,-1.71 -0.15,-2.36 0,-0.65 -0.04,-0.99 -0.08,-1.37 -0.08,0.08 -0.15,0.19 -0.23,0.27 -0.42,0.49 -0.93,1.1 -1.43,1.64 -0.46,0.53 -0.89,1.03 -1.27,1.48 -0.08,0.08 -0.15,0.15 -0.23,0.27 -0.04,0.19 -0.08,0.38 -0.15,0.69 -0.04,0.27 -0.12,0.65 -0.15,0.99 -0.04,0.34 -0.08,0.72 -0.12,1.07 0,0.34 -0.04,0.65 -0.04,0.8 0,0.15 0,0.15 0,0.23 0,0.04 0.04,0.11 0.08,0.23 0.04,0.11 0.08,0.27 0.15,0.46 0.08,0.19 0.12,0.38 0.19,0.57 0.08,0.23 0.15,0.42 0.23,0.72 0.08,0.27 0.19,0.61 0.31,0.91 0.12,0.3 0.19,0.57 0.27,0.88 0.08,0.3 0.19,0.61 0.31,0.91 -0.04,-0.11 -0.08,-0.19 -0.15,-0.38 -0.08,-0.15 -0.15,-0.38 -0.23,-0.61 -0.08,-0.23 -0.15,-0.42 -0.23,-0.65 -0.08,-0.23 -0.15,-0.46 -0.23,-0.65 -0.08,-0.23 -0.15,-0.42 -0.23,-0.61 -0.08,-0.19 -0.15,-0.38 -0.19,-0.57 -0.08,-0.19 -0.12,-0.38 -0.19,-0.49 -0.04,-0.11 -0.08,-0.15 -0.08,-0.23 0,0.15 0,0.3 0,0.46 0,0.15 0,0.34 0.08,0.5 0,0.15 0.08,0.27 0.08,0.42 0,0.15 0.04,0.31 0.08,0.42 0,0.15 0,0.27 0,0.42 0,0.15 0,0.3 0,0.46 0,0.15 -0.04,0.31 -0.08,0.42 0,0.11 -0.08,0.27 -0.12,0.46 -0.04,0.19 -0.12,0.42 -0.19,0.65 -0.08,0.23 -0.15,0.38 -0.23,0.53 -0.08,0.15 -0.15,0.31 -0.23,0.46 -0.08,0.15 -0.15,0.27 -0.23,0.42 0.08,-0.19 0.15,-0.34 0.23,-0.53 0.08,-0.19 0.19,-0.46 0.27,-0.69 0.08,-0.23 0.15,-0.46 0.19,-0.68 0.08,-0.23 0.12,-0.46 0.15,-0.68 0,-0.23 0.04,-0.46 0.04,-0.65 0,-0.19 0,-0.38 -0.04,-0.61 0,-0.19 -0.12,-0.42 -0.15,-0.65 -0.04,-0.19 -0.08,-0.38 -0.12,-0.65 0,-0.27 -0.08,-0.57 -0.08,-0.91 0,-0.34 0,-0.72 0,-1.1 0,-0.38 0,-0.76 0.08,-1.07 0,-0.31 0.08,-0.57 0.12,-0.84 -0.08,0.08 -0.15,0.19 -0.23,0.27 -0.39,0.42 -0.81,0.91 -1.23,1.37 -0.42,0.46 -0.85,0.91 -1.23,1.33 -0.15,0.19 -0.35,0.34 -0.5,0.53 -0.08,0.19 -0.15,0.42 -0.23,0.65 -0.08,0.27 -0.15,0.57 -0.23,0.88 -0.08,0.31 -0.15,0.65 -0.23,0.95 -0.08,0.31 -0.12,0.61 -0.15,0.84 0,0.23 -0.04,0.46 -0.04,0.65 0,0.19 0,0.42 0,0.65 0,0.23 -0.04,0.53 -0.12,0.84 -0.04,0.31 -0.12,0.69 -0.19,0.95 -0.08,0.3 -0.12,0.5 -0.15,0.72 0,-0.08 0,-0.15 0.04,-0.3 0,-0.15 0.04,-0.38 0.08,-0.57 0,-0.19 0,-0.3 0.04,-0.46 0,-0.15 0,-0.3 0.04,-0.46 0,-0.15 0,-0.3 0,-0.46 0,-0.15 0,-0.3 0,-0.46 0,-0.15 0,-0.27 0,-0.42 0,-0.15 0,-0.27 0,-0.42 0,-0.15 0,-0.34 0,-0.57 0,-0.23 0.04,-0.49 0.08,-0.72 0,-0.23 0.08,-0.42 0.12,-0.65 0,-0.19 0.08,-0.42 0.12,-0.57 0,-0.15 0.04,-0.23 0.04,-0.34 -0.39,0.42 -0.89,0.91 -1.35,1.41 -0.46,0.49 -0.96,0.99 -1.47,1.45 -0.08,0.31 -0.19,0.61 -0.31,0.91 -0.12,0.34 -0.31,0.72 -0.46,1.07 -0.15,0.34 -0.31,0.72 -0.42,0.99 -0.12,0.31 -0.23,0.5 -0.27,0.69 -0.08,0.15 -0.08,0.27 -0.12,0.38 0,-0.23 0.08,-0.42 0.15,-0.72 0.08,-0.31 0.19,-0.72 0.31,-1.1 0.12,-0.38 0.23,-0.72 0.31,-0.99 0.08,-0.27 0.12,-0.46 0.19,-0.61 -0.35,0.34 -0.69,0.65 -1,0.95 -0.5,0.49 -1,0.91 -1.47,1.33 -0.46,0.42 -0.96,0.84 -1.39,1.22 -0.46,0.38 -0.89,0.72 -1.2,0.95 -0.31,0.23 -0.54,0.38 -0.73,0.53 1.12,-1.07 2.28,-2.13 3.47,-3.27 0.27,-0.23 0.5,-0.5 0.77,-0.76 -1.08,0 -2.12,-0.08 -3.2,-0.08l0.62 -0.08c0.62,-0.08 1.85,-0.19 3.09,-0.34 0.81,-0.8 1.66,-1.64 2.51,-2.51 0.42,-0.42 0.81,-0.84 1.23,-1.29 -0.23,0 -0.5,0.04 -0.81,0.08 -0.31,0 -0.73,0 -1.04,0.04 -0.31,0 -0.58,0 -0.77,0 -0.19,0 -0.35,0 -0.54,0 -0.19,0 -0.39,0 -0.69,0.04 -0.31,0 -0.69,0.08 -1.08,0.15 -0.39,0.08 -0.69,0.11 -1.04,0.19 0.08,0 0.19,-0.08 0.35,-0.11 0.19,-0.04 0.46,-0.11 0.69,-0.15 0.23,-0.08 0.46,-0.11 0.66,-0.15 0.19,-0.04 0.39,-0.08 0.54,-0.11 0.15,0 0.27,-0.04 0.35,-0.04 0.12,0 0.23,0 0.35,0 0.12,0 0.23,0 0.39,0 0.15,0 0.27,0 0.42,0 0.15,0 0.35,0 0.54,-0.04 0.19,0 0.39,-0.04 0.62,-0.08 0.19,0 0.39,-0.04 0.62,-0.08 0.23,0 0.46,-0.08 0.62,-0.08 0.15,0 0.19,0 0.27,0 0.73,-0.84 1.54,-1.71 2.39,-2.74 0.31,-0.34 0.58,-0.68 0.93,-1.07 -0.04,0 -0.12,0 -0.19,0 -0.08,0 -0.19,0 -0.39,0.04 -0.15,0 -0.39,0 -0.73,0.04 -0.35,0 -0.77,0 -1.16,0 -0.39,0 -0.73,-0.04 -0.96,-0.08 -0.23,-0.04 -0.39,-0.08 -0.58,-0.11 -0.19,0 -0.42,-0.08 -0.69,-0.08 -0.27,0 -0.54,0 -0.81,0 -0.27,0 -0.5,0.04 -0.73,0.11 -0.27,0.04 -0.54,0.11 -0.77,0.15 -0.27,0.08 -0.46,0.11 -0.77,0.19 -0.31,0.08 -0.66,0.19 -0.89,0.27 -0.23,0.08 -0.27,0.08 -0.35,0.11 0.27,-0.11 0.5,-0.23 0.77,-0.34 0.27,-0.11 0.54,-0.19 0.93,-0.31 0.35,-0.11 0.77,-0.19 1.08,-0.27 0.31,-0.08 0.54,-0.11 0.77,-0.15 0.23,0 0.46,-0.04 0.69,-0.08 0.23,0 0.42,0 0.62,0 0.19,0 0.39,0.04 0.54,0.08 0.15,0 0.31,0.04 0.54,0.08 0.23,0 0.5,0 0.77,0 0.27,0 0.54,0 0.81,-0.04 0.27,0 0.54,-0.08 0.85,-0.11 0.27,-0.04 0.58,-0.11 0.77,-0.15 0.19,-0.04 0.31,-0.08 0.42,-0.11 0.97,-1.14 2.01,-2.36 3.09,-3.62 -0.08,0 -0.19,0 -0.35,0 -0.15,0 -0.42,0 -0.69,0 -0.27,0 -0.58,0 -0.85,0 -0.27,0 -0.46,0 -0.73,-0.04 -0.27,0 -0.54,-0.04 -0.81,-0.08 -0.27,0 -0.46,-0.08 -0.66,-0.08 -0.19,0 -0.31,-0.04 -0.46,-0.08 -0.12,0 -0.23,-0.04 -0.35,-0.08 -0.12,0 -0.23,0 -0.35,-0.04 -0.12,0 -0.27,0 -0.42,0 -0.15,0 -0.31,0 -0.5,0 -0.19,0 -0.46,0 -0.73,0.04 -0.27,0 -0.5,0.08 -0.77,0.11 -0.27,0.04 -0.54,0.08 -0.77,0.15 -0.23,0.04 -0.42,0.08 -0.73,0.19 -0.31,0.08 -0.73,0.19 -1.12,0.3 0.23,-0.08 0.5,-0.19 0.85,-0.3 0.35,-0.11 0.77,-0.23 1.2,-0.34 0.42,-0.11 0.85,-0.19 1.23,-0.27 0.39,-0.08 0.69,-0.11 1,-0.11 0.31,0 0.58,0 0.77,0 0.23,0 0.39,0 0.54,0.04 0.15,0 0.31,0.04 0.46,0.08 0.15,0 0.35,0.04 0.58,0.08 0.23,0 0.54,0 0.81,0.04 0.31,0 0.58,0 0.81,0 0.23,0 0.39,0 0.66,0 0.27,0 0.58,0 0.89,-0.04 0.31,0 0.58,-0.04 0.73,-0.08 0.15,0 0.23,-0.04 0.27,-0.08 0.12,-0.11 0.19,-0.27 0.31,-0.38 0.97,-1.14 1.89,-2.28 2.82,-3.39 -0.12,0 -0.23,0 -0.5,-0.04 -0.27,0 -0.66,-0.08 -1,-0.11 -0.35,-0.04 -0.69,-0.08 -1,-0.11 -0.31,0 -0.62,-0.08 -0.93,-0.11 -0.31,0 -0.58,-0.08 -0.81,-0.08 -0.23,0 -0.39,-0.04 -0.58,-0.08 -0.19,0 -0.39,0 -0.62,0 -0.23,0 -0.46,0 -0.77,0 -0.27,0 -0.62,0 -0.93,0.04 -0.31,0 -0.58,0.04 -0.96,0.11 -0.39,0.04 -0.85,0.11 -1.35,0.23 -0.5,0.11 -1,0.23 -1.39,0.3 -0.42,0.11 -0.73,0.19 -1.08,0.3 0.42,-0.19 0.89,-0.38 1.5,-0.53 0.62,-0.19 1.39,-0.34 1.97,-0.42 0.58,-0.11 0.93,-0.11 1.27,-0.15l0.08 0.19zm59.86 0c0,0 0.27,-0.08 0.46,-0.15 0.19,-0.04 0.39,-0.11 0.58,-0.19 0.19,-0.08 0.35,-0.11 0.58,-0.19 0.23,-0.08 0.46,-0.15 0.66,-0.23 0.19,-0.08 0.31,-0.11 0.42,-0.15 0.12,0 0.23,-0.08 0.39,-0.11 0.15,-0.04 0.35,-0.11 0.58,-0.19 0.19,-0.08 0.42,-0.15 0.66,-0.23 -0.42,0.11 -0.85,0.23 -1.39,0.38 -0.54,0.15 -1.16,0.3 -1.58,0.42 -0.42,0.11 -0.73,0.19 -1,0.27 -0.27,0.08 -0.54,0.15 -0.66,0.19 -0.15,0.04 -0.15,0.04 -0.35,0 -0.19,0 -0.58,-0.04 -0.96,-0.08 -0.39,0 -0.77,0 -1.16,0 -0.39,0 -0.85,0.04 -1.23,0.08 -0.42,0 -0.81,0.08 -1.16,0.08 -0.35,0 -0.66,0.04 -0.93,0.08 -0.27,0 -0.54,0.04 -0.77,0.08 -0.23,0 -0.39,0 -0.58,0.04 -0.73,-0.91 -1.47,-1.75 -2.16,-2.55 -0.46,-0.53 -0.89,-1.07 -1.31,-1.52 0.15,0 0.35,0 0.58,-0.08 0.23,0 0.54,-0.08 0.81,-0.11 0.27,0 0.54,-0.08 0.89,-0.11 0.31,0 0.69,-0.08 1.12,-0.11 0.42,-0.04 0.93,-0.08 1.39,-0.11 0.46,0 0.85,-0.04 1.2,-0.08 0.31,0 0.58,0 0.89,0 0.31,0 0.69,0 1.08,0 0.42,0 0.85,0 1.35,0 0.54,0 1.16,0 1.77,0 0.62,0 1.23,0 1.62,0.04 0.39,0 0.58,0 0.73,0 -0.66,-0.08 -1.31,-0.11 -1.81,-0.15 -0.5,-0.04 -0.93,-0.08 -1.27,-0.08 -0.35,0 -0.66,0 -1.08,-0.04 -0.42,0 -0.96,-0.04 -1.43,-0.08 -0.5,0 -0.93,0 -1.39,0 -0.46,0 -0.93,0 -1.39,0 -0.46,0 -0.89,0 -1.35,0.04 -0.46,0 -0.93,0.04 -1.47,0.08 -0.5,0.04 -1.08,0.08 -1.5,0.11 -0.42,0.04 -0.77,0.08 -1.08,0.11 -0.93,-1.07 -1.77,-2.02 -2.58,-2.86 -0.39,-0.38 -0.73,-0.76 -1.08,-1.14 0.27,-0.04 0.58,-0.11 0.93,-0.15 0.35,-0.08 0.77,-0.15 1.23,-0.23 0.46,-0.08 0.96,-0.15 1.5,-0.23 0.54,-0.08 1.16,-0.19 1.85,-0.23 0.69,-0.08 1.43,-0.11 1.77,-0.11 0.39,0 0.39,0 0.46,0 0.08,0.04 0.23,0.11 0.46,0.23 0.23,0.11 0.54,0.27 0.89,0.42 0.31,0.15 0.66,0.34 1.08,0.53 0.42,0.19 0.93,0.46 1.47,0.68 0.54,0.27 1.08,0.5 1.62,0.76 -0.19,-0.11 -0.42,-0.23 -0.69,-0.38 -0.31,-0.15 -0.66,-0.34 -1.08,-0.57 -0.42,-0.23 -0.89,-0.46 -1.43,-0.72 -0.54,-0.27 -1.12,-0.57 -1.47,-0.76 -0.35,-0.15 -0.42,-0.19 -0.5,-0.23 0.42,0 0.85,0 1.27,0.04 0.42,0 0.85,0.04 1.43,0.08 0.58,0 1.27,0.08 1.77,0.08 0.5,0 0.85,0 1.12,-0.04 0.23,-0.04 0.39,-0.11 0.54,-0.19 -0.15,0.04 -0.31,0.11 -0.5,0.11 -0.19,0 -0.5,0 -0.93,0 -0.46,0 -1.08,-0.08 -1.85,-0.15 -0.77,-0.08 -1.66,-0.15 -2.43,-0.19 -0.73,-0.04 -1.35,-0.08 -2.04,-0.04 -0.73,0 -1.54,0.11 -2.43,0.19 -0.89,0.08 -1.81,0.19 -2.55,0.27 -0.77,0.08 -1.35,0.19 -1.93,0.27 -0.69,-0.72 -1.43,-1.41 -2.16,-2.09 -0.58,-0.53 -1.16,-1.07 -1.77,-1.56 0.08,-0.04 0.19,-0.08 0.39,-0.15 0.19,-0.08 0.5,-0.15 0.81,-0.23 0.35,-0.08 0.7,-0.15 1.08,-0.23 0.39,-0.08 0.73,-0.11 1.16,-0.15 0.42,-0.04 0.93,-0.08 1.39,-0.08 0.46,0 0.97,0 1.39,0 0.46,0 0.89,0 1.31,0 0.42,0 0.85,-0.04 1.23,-0.08 0.39,0 0.73,-0.08 1.04,-0.11 0.31,0 0.54,-0.08 0.77,-0.11 0.23,0 0.46,-0.04 0.62,-0.08 0.15,0 0.27,0 0.39,0 0.12,0 0.23,0.04 0.35,0.08 -0.08,0 -0.12,-0.08 -0.23,-0.08 -0.08,0 -0.19,-0.04 -0.31,-0.04 -0.12,0 -0.27,0 -0.46,0 -0.19,0 -0.42,0.04 -0.69,0.08 -0.27,0 -0.54,0.04 -0.89,0.08 -0.31,0 -0.7,0 -1,0.04 -0.35,0 -0.66,0 -0.93,0 -0.31,0 -0.58,0 -0.85,0 -0.27,0 -0.58,0 -0.89,-0.04 -0.35,0 -0.73,-0.04 -1.16,-0.04 -0.39,0 -0.77,0 -1.16,0 -0.39,0 -0.81,0.08 -1.23,0.11 -0.39,0.04 -0.81,0.11 -1.16,0.19 -0.39,0.08 -0.73,0.19 -0.96,0.27 -0.23,0.08 -0.35,0.11 -0.5,0.19 -0.58,-0.49 -1.16,-0.99 -1.74,-1.41 -1.23,-0.99 -2.39,-1.83 -3.36,-2.47 0.42,0.08 0.85,0.11 1.31,0.15 0.5,0.04 1.08,0.08 1.66,0.04 0.58,0 1.2,-0.08 1.7,-0.11 0.46,-0.04 0.81,-0.11 1.16,-0.15 0.35,-0.04 0.69,-0.08 1,-0.08 0.31,0 0.62,0 1.08,0.08 0.42,0.04 1,0.15 1.47,0.27 0.46,0.11 0.85,0.23 1.12,0.3 0.27,0.11 0.46,0.19 0.66,0.27 -0.27,-0.11 -0.5,-0.27 -0.77,-0.38 -0.27,-0.11 -0.58,-0.19 -0.85,-0.27 -0.31,-0.08 -0.58,-0.15 -0.96,-0.23 -0.35,-0.08 -0.77,-0.11 -1.2,-0.15 -0.42,-0.04 -0.81,-0.08 -1.16,-0.08 -0.31,0 -0.58,0 -0.73,0 -0.19,0 -0.31,0.04 -0.46,0.08 -0.15,0 -0.31,0 -0.58,0.04 -0.27,0 -0.73,0 -1.12,0 -0.39,0 -0.77,0 -1.12,-0.04 -0.35,0 -0.62,-0.04 -0.89,-0.08 -0.27,0 -0.58,-0.08 -0.85,-0.15 -0.31,-0.04 -0.62,-0.11 -0.89,-0.15 -0.27,-0.04 -0.54,-0.08 -0.77,-0.11 -0.54,-0.34 -1.08,-0.61 -1.58,-0.88 2.47,-0.42 5.05,-0.76 8.25,-0.72 3.63,0.08 8.1,0.65 12.03,1.83 3.93,1.18 7.33,2.93 10.3,5.37 2.93,2.44 5.4,5.6 7.29,8.79 3.97,6.66 8.29,20.4 4.67,27.45 -8.99,3.24 -19.29,0.38 -27.5,-4.11 -3.28,-1.79 -6.02,-3.96 -8.49,-6.81 -2.47,-2.86 -4.67,-6.36 -5.98,-10.09 -1.35,-3.73 -1.85,-7.73 -2.04,-10.89 -0.19,-3.16 -0.04,-5.48 0.23,-7.54 0.12,-0.88 0.27,-1.71 0.46,-2.51 0.46,0.27 0.96,0.53 1.58,0.91 0.27,0.15 0.58,0.38 0.89,0.57 0,0.34 0,0.68 0,1.1 0,0.46 -0.08,0.99 -0.12,1.45 -0.04,0.46 -0.12,0.84 -0.19,1.26 -0.08,0.42 -0.15,0.91 -0.23,1.33 -0.08,0.42 -0.12,0.8 -0.12,1.18 0,0.38 0,0.8 0,1.18 0,0.38 0.12,0.76 0.19,1.1 0.12,0.34 0.23,0.69 0.39,1.03 -0.04,-0.11 -0.08,-0.31 -0.15,-0.46 -0.04,-0.19 -0.12,-0.42 -0.15,-0.68 -0.04,-0.27 -0.08,-0.65 -0.08,-1.07 0,-0.46 0,-0.99 0.08,-1.52 0.08,-0.53 0.19,-1.1 0.35,-1.79 0.15,-0.68 0.27,-1.48 0.39,-2.13 0.08,-0.65 0.12,-1.14 0.19,-1.6 0.19,0.11 0.39,0.23 0.54,0.34 0.58,0.38 1.04,0.68 1.58,1.1 0.54,0.38 1.2,0.88 1.93,1.45 0,0 0.08,0.04 0.08,0.08 -0.15,0.38 -0.31,0.76 -0.46,1.14 -0.15,0.38 -0.27,0.8 -0.39,1.14 -0.12,0.34 -0.19,0.57 -0.27,0.91 -0.08,0.34 -0.19,0.72 -0.27,1.14 -0.08,0.42 -0.15,0.8 -0.23,1.22 -0.08,0.42 -0.12,0.88 -0.15,1.26 0,0.38 0,0.65 0,0.95 0,0.27 0,0.53 0,0.8 0,0.23 0,0.42 0,0.72 0,0.27 0,0.65 0,1.07 0,0.42 -0.04,0.91 -0.08,1.33 -0.04,0.42 -0.08,0.8 -0.15,1.1 -0.04,0.3 -0.08,0.57 -0.08,0.76 0,0.19 0,0.34 0,0.46 0,0.11 0,0.23 0.04,0.31 0,0.08 0,0.11 0.04,0.15 0,-0.15 0,-0.3 0,-0.46 0,-0.15 0,-0.3 0,-0.46 0,-0.15 0.04,-0.31 0.08,-0.5 0.04,-0.23 0.12,-0.49 0.15,-0.88 0.04,-0.38 0.08,-0.84 0.12,-1.22 0,-0.38 0.04,-0.65 0.08,-0.88 0,-0.23 0,-0.38 0,-0.53 0,-0.15 0,-0.23 0,-0.34 0.12,0.34 0.19,0.72 0.31,1.1 0.12,0.38 0.23,0.8 0.39,1.29 0.15,0.53 0.35,1.14 0.46,1.52 0.12,0.38 0.19,0.5 0.27,0.61 -0.15,-0.65 -0.35,-1.26 -0.46,-1.75 -0.12,-0.49 -0.23,-0.8 -0.31,-1.07 -0.08,-0.27 -0.15,-0.46 -0.19,-0.68 -0.08,-0.23 -0.12,-0.5 -0.19,-0.69 -0.04,-0.23 -0.12,-0.38 -0.15,-0.53 -0.04,-0.15 -0.08,-0.27 -0.08,-0.3 0,-0.08 0,-0.08 0,-0.27 0,-0.19 0,-0.57 0.04,-0.99 0,-0.42 0.08,-0.88 0.15,-1.33 0.08,-0.5 0.19,-0.99 0.31,-1.52 0.12,-0.53 0.27,-1.03 0.42,-1.52 0.15,-0.49 0.31,-0.95 0.5,-1.37 0.15,-0.42 0.35,-0.84 0.54,-1.26 0.54,0.46 1.12,0.91 1.73,1.45 0.81,0.69 1.62,1.48 2.43,2.25 -0.35,0.84 -0.69,1.67 -1.04,2.59 -0.35,0.91 -0.62,1.94 -0.85,2.78 -0.23,0.84 -0.39,1.56 -0.5,2.28 -0.12,0.72 -0.19,1.45 -0.23,2.21 -0.04,0.76 0,1.56 0,2.4 0,0.84 0.08,1.75 0.12,2.47 0,0.72 0,1.22 0,1.6 0,0.34 -0.08,0.53 -0.15,0.72 0.08,-0.08 0.15,-0.11 0.23,-0.27 0.08,-0.15 0.12,-0.38 0.12,-1.07 0,-0.68 0,-1.83 0,-3.08 0,-1.26 0.08,-2.63 0.19,-3.73 0.15,-1.14 0.39,-2.06 0.73,-3.2 0.35,-1.18 0.81,-2.59 1.16,-3.5 0.35,-0.91 0.54,-1.33 0.73,-1.75 0.66,0.61 1.23,1.22 1.81,1.83 0.62,0.61 1.16,1.18 1.7,1.79 -0.12,0.57 -0.27,1.14 -0.5,2.21 -0.23,1.07 -0.58,2.63 -0.81,3.88 -0.23,1.26 -0.39,2.25 -0.42,2.85 -0.08,0.57 -0.08,0.76 -0.08,0.84 0,0.08 0,0.08 -0.04,0.19 -0.04,0.08 -0.12,0.23 -0.39,0.72 -0.27,0.49 -0.69,1.33 -1.08,2.02 -0.39,0.69 -0.66,1.26 -0.93,1.79 0.27,-0.34 0.54,-0.65 0.93,-1.33 0.39,-0.65 0.89,-1.64 1.16,-2.17 0.27,-0.53 0.31,-0.61 0.39,-0.65 0,0.8 -0.04,1.6 -0.04,2.44 0,0.84 0,1.71 0,2.36 0,0.65 0.08,1.1 0.15,1.56 0,-1.03 0,-2.06 0.04,-3.01 0,-0.99 0,-1.9 0.08,-2.7 0.04,-0.84 0.12,-1.56 0.35,-2.74 0.19,-1.18 0.54,-2.78 0.85,-4.11 0.31,-1.37 0.62,-2.47 0.93,-3.58 0.58,0.65 1.16,1.29 1.66,1.83 0.54,0.61 1,1.1 1.5,1.71 -0.12,0.84 -0.23,1.67 -0.31,2.47 -0.12,0.8 -0.23,1.6 -0.31,2.32 -0.12,0.72 -0.19,1.37 -0.27,1.87 -0.08,0.49 -0.12,0.88 -0.15,1.41 0,0.53 0,1.18 0,1.83 0.04,0.65 0.12,1.26 0.27,1.94 0.12,0.68 0.27,1.45 0.42,1.98 0.12,0.53 0.23,0.8 0.31,1.07 -0.08,-0.34 -0.15,-0.65 -0.23,-0.95 -0.08,-0.31 -0.12,-0.57 -0.19,-0.91 -0.08,-0.34 -0.12,-0.72 -0.15,-1.1 -0.04,-0.34 -0.08,-0.69 -0.12,-0.99 0,-0.34 0,-0.72 0,-1.14 0,-0.42 0,-0.88 0,-1.22 0,-0.34 0,-0.53 0.08,-0.76 0,-0.19 0.08,-0.42 0.12,-0.76 0.04,-0.34 0.15,-0.84 0.23,-1.29 0.08,-0.46 0.15,-0.91 0.23,-1.29 0.08,-0.38 0.12,-0.76 0.19,-1.18 0.08,-0.46 0.15,-0.99 0.23,-1.45 0.08,-0.46 0.15,-0.8 0.23,-1.14 0.42,0.49 0.89,1.03 1.35,1.56 0.62,0.72 1.16,1.37 1.62,1.9 0.15,0.19 0.31,0.34 0.46,0.53 0,0.27 0,0.5 0,1.22 0,0.72 -0.04,1.87 -0.08,2.82 -0.04,0.91 -0.12,1.56 -0.19,2.09 -0.08,0.53 -0.19,0.91 -0.23,1.41 0,0.49 0,1.14 0.08,1.83 0.08,0.68 0.19,1.37 0.35,1.9 0.12,0.53 0.27,0.88 0.42,1.22 -0.04,-0.23 -0.12,-0.46 -0.19,-0.84 -0.08,-0.34 -0.15,-0.84 -0.23,-1.22 -0.08,-0.42 -0.12,-0.72 -0.15,-1.1 0,-0.38 -0.04,-0.8 -0.04,-1.1 0,-0.34 0,-0.57 0.08,-0.88 0.04,-0.31 0.15,-0.61 0.23,-1.1 0.12,-0.46 0.19,-1.07 0.27,-1.87 0.08,-0.76 0.12,-1.71 0.15,-2.36 0,-0.65 0.04,-0.99 0.08,-1.37 0.08,0.08 0.15,0.19 0.23,0.27 0.42,0.5 0.93,1.1 1.43,1.64 0.46,0.53 0.89,1.03 1.27,1.48 0.08,0.08 0.15,0.15 0.23,0.27 0.04,0.19 0.08,0.38 0.15,0.65 0.04,0.27 0.12,0.65 0.15,0.99 0.04,0.34 0.08,0.72 0.12,1.07 0,0.34 0.04,0.65 0.04,0.8 0,0.15 0,0.15 0,0.23 0,0.04 -0.04,0.11 -0.08,0.23 -0.04,0.11 -0.08,0.27 -0.15,0.46 -0.08,0.19 -0.12,0.38 -0.19,0.57 -0.08,0.23 -0.15,0.42 -0.23,0.72 -0.08,0.27 -0.19,0.61 -0.31,0.91 -0.12,0.3 -0.19,0.57 -0.27,0.88 -0.08,0.3 -0.19,0.61 -0.31,0.91 0.04,-0.11 0.08,-0.19 0.15,-0.38 0.08,-0.15 0.15,-0.38 0.23,-0.61 0.08,-0.23 0.15,-0.42 0.23,-0.65 0.08,-0.23 0.15,-0.46 0.23,-0.65 0.08,-0.23 0.15,-0.42 0.23,-0.61 0.08,-0.19 0.15,-0.38 0.19,-0.57 0.08,-0.19 0.12,-0.38 0.19,-0.49 0.04,-0.11 0.08,-0.15 0.08,-0.23 0,0.15 0,0.3 0,0.46 0,0.15 0,0.34 -0.04,0.5 0,0.15 -0.08,0.27 -0.08,0.42 0,0.15 -0.04,0.31 -0.08,0.42 0,0.15 0,0.27 0,0.38 0,0.15 0,0.3 0,0.46 0,0.15 0.04,0.31 0.08,0.42 0,0.11 0.08,0.27 0.12,0.46 0.04,0.19 0.15,0.42 0.19,0.65 0.08,0.23 0.15,0.38 0.23,0.53 0.08,0.15 0.15,0.31 0.23,0.46 0.08,0.15 0.15,0.27 0.23,0.42 -0.08,-0.19 -0.15,-0.34 -0.23,-0.53 -0.08,-0.19 -0.19,-0.42 -0.27,-0.69 -0.08,-0.23 -0.15,-0.46 -0.19,-0.68 -0.08,-0.23 -0.12,-0.46 -0.15,-0.68 0,-0.23 -0.04,-0.42 -0.04,-0.65 0,-0.19 0,-0.38 0.04,-0.61 0,-0.19 0.12,-0.42 0.15,-0.65 0.04,-0.19 0.08,-0.38 0.12,-0.65 0,-0.23 0.08,-0.57 0.08,-0.91 0,-0.34 0,-0.72 0,-1.1 0,-0.38 0,-0.76 -0.08,-1.07 0,-0.3 -0.08,-0.57 -0.12,-0.84 0.08,0.08 0.15,0.19 0.23,0.27 0.39,0.46 0.81,0.91 1.23,1.37 0.42,0.46 0.85,0.91 1.23,1.33 0.15,0.19 0.35,0.34 0.5,0.53 0.08,0.19 0.15,0.42 0.23,0.65 0.08,0.27 0.15,0.57 0.23,0.88 0.08,0.31 0.15,0.65 0.23,0.95 0.08,0.31 0.12,0.61 0.15,0.84 0,0.23 0.04,0.46 0.04,0.65 0,0.19 0,0.42 0,0.65 0,0.23 0.04,0.53 0.08,0.84 0.04,0.31 0.12,0.69 0.19,0.95 0.08,0.31 0.12,0.5 0.15,0.72 0,-0.08 0,-0.15 -0.04,-0.31 0,-0.15 -0.04,-0.38 -0.08,-0.57 0,-0.19 0,-0.3 -0.04,-0.46 0,-0.15 0,-0.31 -0.04,-0.46 0,-0.15 0,-0.3 0,-0.46 0,-0.15 0,-0.31 0,-0.46 0,-0.15 0,-0.27 0,-0.42 0,-0.15 0,-0.27 0,-0.42 0,-0.15 0,-0.34 0,-0.57 0,-0.23 -0.04,-0.5 -0.08,-0.72 0,-0.23 -0.08,-0.42 -0.12,-0.65 0,-0.19 -0.08,-0.42 -0.12,-0.57 0,-0.15 -0.04,-0.23 -0.04,-0.34 0.39,0.42 0.89,0.91 1.35,1.41 0.46,0.49 0.96,0.99 1.47,1.45 0.08,0.31 0.19,0.61 0.31,0.91 0.12,0.34 0.31,0.72 0.46,1.07 0.15,0.34 0.31,0.72 0.42,0.99 0.12,0.31 0.23,0.53 0.27,0.69 0.08,0.15 0.08,0.27 0.12,0.38 0,-0.23 -0.08,-0.42 -0.15,-0.72 -0.08,-0.31 -0.19,-0.72 -0.31,-1.1 -0.12,-0.38 -0.23,-0.72 -0.31,-0.99 -0.08,-0.27 -0.12,-0.46 -0.19,-0.61 0.35,0.34 0.69,0.65 1,0.95 0.5,0.49 1,0.91 1.47,1.33 0.46,0.42 0.96,0.84 1.39,1.22 0.46,0.38 0.89,0.72 1.2,0.95 0.31,0.23 0.54,0.38 0.73,0.53 -1.12,-1.07 -2.28,-2.13 -3.47,-3.27 -0.27,-0.23 -0.5,-0.49 -0.77,-0.76 1.08,0 2.12,-0.08 3.2,-0.08l-0.62 -0.08c-0.62,-0.08 -1.85,-0.19 -3.09,-0.34 -0.81,-0.8 -1.66,-1.64 -2.51,-2.51 -0.42,-0.42 -0.81,-0.84 -1.23,-1.29 0.23,0 0.5,0.04 0.81,0.08 0.31,0 0.73,0 1.04,0.04 0.31,0 0.58,0 0.77,0 0.19,0 0.35,0 0.54,-0.04 0.19,0 0.39,0 0.69,0.04 0.31,0 0.69,0.08 1.08,0.15 0.39,0.08 0.69,0.11 1.04,0.19 -0.08,0 -0.19,-0.08 -0.35,-0.11 -0.19,-0.04 -0.46,-0.11 -0.69,-0.15 -0.23,-0.08 -0.46,-0.11 -0.66,-0.15 -0.19,-0.04 -0.39,-0.08 -0.54,-0.11 -0.15,0 -0.27,-0.04 -0.35,-0.04 -0.12,0 -0.23,0 -0.35,0 -0.12,0 -0.23,0 -0.39,0 -0.12,0 -0.27,0 -0.42,0 -0.15,0 -0.35,0 -0.54,-0.04 -0.19,0 -0.39,-0.04 -0.62,-0.08 -0.19,0 -0.39,-0.04 -0.62,-0.08 -0.23,0 -0.46,-0.08 -0.62,-0.08 -0.15,0 -0.19,0 -0.27,0 -0.73,-0.84 -1.54,-1.71 -2.39,-2.74 -0.31,-0.34 -0.58,-0.68 -0.93,-1.07 0.04,0 0.12,0 0.19,0 0.08,0 0.19,0 0.39,0.04 0.15,0 0.39,0 0.73,0.04 0.35,0 0.77,0 1.16,0 0.39,0 0.73,-0.04 0.96,-0.08 0.23,-0.04 0.39,-0.08 0.58,-0.11 0.19,0 0.42,-0.08 0.69,-0.08 0.27,0 0.54,0 0.81,0 0.27,0 0.5,0.04 0.73,0.11 0.23,0.08 0.54,0.11 0.77,0.15 0.27,0.08 0.46,0.11 0.77,0.19 0.31,0.08 0.66,0.19 0.89,0.27 0.23,0.08 0.27,0.08 0.35,0.11 -0.27,-0.11 -0.5,-0.23 -0.77,-0.34 -0.27,-0.11 -0.58,-0.19 -0.93,-0.3 -0.35,-0.11 -0.77,-0.19 -1.08,-0.27 -0.31,-0.08 -0.54,-0.11 -0.77,-0.15 -0.23,0 -0.46,-0.04 -0.69,-0.08 -0.23,0 -0.42,0 -0.62,0 -0.19,0 -0.39,0.04 -0.54,0.08 -0.15,0 -0.31,0.04 -0.54,0.08 -0.23,0 -0.5,0 -0.77,0 -0.27,0 -0.54,0 -0.81,-0.04 -0.27,0 -0.54,-0.08 -0.85,-0.11 -0.27,-0.04 -0.58,-0.11 -0.77,-0.15 -0.19,-0.04 -0.31,-0.08 -0.42,-0.11 -0.97,-1.14 -2.01,-2.36 -3.09,-3.62 0.08,0 0.19,0 0.35,0 0.15,0 0.42,0 0.69,0 0.27,0 0.58,0 0.85,0 0.27,0 0.46,0 0.73,-0.04 0.27,0 0.54,-0.04 0.81,-0.08 0.27,0 0.46,-0.08 0.66,-0.08 0.19,0 0.31,-0.04 0.46,-0.08 0.12,0 0.23,-0.04 0.35,-0.08 0.12,0 0.23,0 0.35,-0.04 0.12,0 0.27,0 0.42,0 0.15,0 0.31,0 0.5,0 0.19,0 0.46,0 0.73,0.04 0.27,0 0.5,0.08 0.77,0.11 0.27,0.04 0.54,0.08 0.77,0.15 0.23,0.04 0.42,0.08 0.73,0.19 0.31,0.08 0.73,0.19 1.12,0.31 -0.23,-0.08 -0.5,-0.19 -0.85,-0.31 -0.35,-0.11 -0.77,-0.23 -1.2,-0.34 -0.42,-0.11 -0.85,-0.19 -1.23,-0.27 -0.39,-0.08 -0.69,-0.11 -1,-0.11 -0.31,0 -0.58,0 -0.77,0 -0.23,0 -0.39,0 -0.54,0.04 -0.15,0 -0.31,0.04 -0.46,0.08 -0.15,0 -0.35,0.04 -0.58,0.08 -0.23,0 -0.54,0 -0.81,0.04 -0.31,0 -0.58,0 -0.81,0 -0.23,0 -0.39,0 -0.66,0 -0.27,0 -0.58,0 -0.89,-0.04 -0.31,0 -0.58,-0.04 -0.73,-0.08 -0.15,0 -0.23,-0.04 -0.27,-0.08 -0.12,-0.11 -0.19,-0.27 -0.31,-0.38 -0.96,-1.14 -1.89,-2.28 -2.82,-3.39 0.12,0 0.23,0 0.5,-0.04 0.27,0 0.66,-0.08 1,-0.11 0.35,-0.04 0.69,-0.08 1,-0.11 0.31,0 0.62,-0.08 0.93,-0.11 0.31,0 0.58,-0.08 0.81,-0.08 0.23,0 0.39,-0.04 0.58,-0.08 0.19,0 0.39,0 0.62,0 0.23,0 0.46,0 0.77,0 0.27,0 0.62,0 0.93,0.04 0.31,0 0.58,0.04 0.97,0.11 0.39,0.04 0.85,0.11 1.35,0.23 0.5,0.11 1,0.23 1.39,0.31 0.42,0.11 0.73,0.19 1.08,0.3 -0.42,-0.19 -0.89,-0.38 -1.5,-0.53 -0.62,-0.19 -1.39,-0.34 -1.97,-0.42 -0.58,-0.11 -0.93,-0.11 -1.27,-0.15l-0.31 0.27z"/>
 </g>
</svg>
