<svg width="20" height="21" viewBox="0 0 20 21" fill="none" xmlns="http://www.w3.org/2000/svg">
<path d="M19.3801 17.8096L14.6426 13.7802C14.1526 13.3396 13.6289 13.137 13.2058 13.1564C14.3239 11.8464 14.9995 10.1471 14.9995 8.28955C14.9995 4.14768 11.6414 0.789551 7.49951 0.789551C3.35764 0.789551 -0.000488281 4.14768 -0.000488281 8.28955C-0.000488281 12.4314 3.35764 15.7896 7.49951 15.7896C9.35701 15.7896 11.0564 15.1139 12.3664 13.9958C12.347 14.4189 12.5495 14.9427 12.9901 15.4327L17.0195 20.1702C17.7095 20.9364 18.8364 21.0014 19.5239 20.3139C20.2114 19.6264 20.147 18.4996 19.3801 17.8096ZM7.50014 13.2902C4.73889 13.2902 2.50014 11.0514 2.50014 8.29018C2.50014 5.52893 4.73889 3.29018 7.50014 3.29018C10.2614 3.29018 12.5001 5.52893 12.5001 8.29018C12.5001 11.0514 10.2614 13.2902 7.50014 13.2902Z" fill="white"/>
</svg>
