<svg width="20" height="21" viewBox="0 0 20 21" fill="none" xmlns="http://www.w3.org/2000/svg">
<g clip-path="url(#clip0_194_1496)">
<path d="M7.5 18.915C7.5 19.9507 6.66062 20.79 5.625 20.79C4.58938 20.79 3.75 19.9507 3.75 18.915C3.75 17.8794 4.58938 17.04 5.625 17.04C6.66062 17.04 7.5 17.8794 7.5 18.915Z" fill="white"/>
<path d="M20 18.915C20 19.9507 19.1606 20.79 18.125 20.79C17.0894 20.79 16.25 19.9507 16.25 18.915C16.25 17.8794 17.0894 17.04 18.125 17.04C19.1606 17.04 20 17.8794 20 18.915Z" fill="white"/>
<path d="M20 10.79V3.29004H5C5 2.59941 4.44063 2.04004 3.75 2.04004H0V3.29004H2.5L3.43875 11.3382C2.86687 11.7963 2.5 12.5 2.5 13.29C2.5 14.6707 3.61937 15.79 5 15.79H20V14.54H5C4.30937 14.54 3.75 13.9807 3.75 13.29C3.75 13.2857 3.75 13.2813 3.75 13.2775L20 10.79Z" fill="white"/>
</g>
<defs>
<clipPath id="clip0_194_1496">
<rect width="20" height="20" fill="white" transform="translate(0 0.790039)"/>
</clipPath>
</defs>
</svg>
