<svg width="11" height="8" viewBox="0 0 11 8" fill="none" xmlns="http://www.w3.org/2000/svg">
<path d="M10.8902 1.80011C10.8902 1.80011 10.7826 1.0418 10.452 0.708703C10.0329 0.270422 9.56473 0.268359 9.34989 0.242578C7.81161 0.130859 5.50195 0.130859 5.50195 0.130859H5.49783C5.49783 0.130859 3.18817 0.130859 1.64989 0.242578C1.43505 0.268359 0.966859 0.270422 0.547828 0.708703C0.216797 1.0418 0.111609 1.80011 0.111609 1.80011C0.111609 1.80011 0.00195312 2.68973 0.00195312 3.58108V4.41467C0.00195312 5.30395 0.111609 6.19564 0.111609 6.19564C0.111609 6.19564 0.219203 6.95395 0.547828 7.28705C0.966859 7.72533 1.51686 7.7102 1.76161 7.75764C2.64264 7.84152 5.50195 7.8673 5.50195 7.8673C5.50195 7.8673 7.81367 7.86317 9.35195 7.75352C9.5668 7.72773 10.0353 7.72567 10.454 7.28739C10.7847 6.9543 10.8923 6.19598 10.8923 6.19598C10.8923 6.19598 11.002 5.3067 11.002 4.41502V3.58142C10.9999 2.6918 10.8902 1.80011 10.8902 1.80011ZM4.36345 5.42667V2.33498L7.33483 3.88633L4.36345 5.42667Z" fill="white"/>
</svg>
