<svg width="15" height="15" viewBox="0 0 15 15" fill="none" xmlns="http://www.w3.org/2000/svg">
<g clip-path="url(#clip0_194_3073)">
<path d="M14.9999 3.31641C14.4491 3.5625 13.8543 3.72656 13.2332 3.79969C13.8688 3.41859 14.3554 2.81531 14.5864 2.09766C13.9916 2.44922 13.3325 2.70703 12.6322 2.84484C12.0697 2.24719 11.27 1.875 10.385 1.875C8.68582 1.875 7.30863 3.25219 7.30863 4.95141C7.30863 5.19141 7.33488 5.42578 7.38785 5.65172C4.83035 5.52281 2.56254 4.29797 1.0452 2.43516C0.781289 2.88938 0.629414 3.41953 0.629414 3.98203C0.629414 5.04844 1.17129 5.99156 1.9977 6.54281C1.49379 6.52828 1.01941 6.38766 0.603164 6.15891C0.603164 6.17063 0.603164 6.18516 0.603164 6.19688C0.603164 7.68797 1.66395 8.93344 3.07301 9.21422C2.8152 9.28453 2.54285 9.3225 2.2616 9.3225C2.06238 9.3225 1.87207 9.30187 1.68176 9.26672C2.07457 10.4883 3.21129 11.3789 4.55566 11.4056C3.50098 12.2316 2.17676 12.7242 0.732539 12.7242C0.483633 12.7242 0.240352 12.7097 -0.00292969 12.6802C1.36254 13.5563 2.97926 14.063 4.71691 14.063C10.3771 14.063 13.4736 9.37266 13.4736 5.30625C13.4736 5.17172 13.4708 5.03953 13.4647 4.90781C14.0652 4.47703 14.5869 3.93516 14.9999 3.31688V3.31641Z" fill="#D7B46A"/>
</g>
<defs>
<clipPath id="clip0_194_3073">
<rect width="15" height="15" fill="white"/>
</clipPath>
</defs>
</svg>
