<svg width="15" height="15" viewBox="0 0 15 15" fill="none" xmlns="http://www.w3.org/2000/svg">
<g id="socials" clip-path="url(#clip0_194_3075)">
<path id="Vector" d="M14.8506 4.50001C14.8506 4.50001 14.7039 3.46594 14.2529 3.01172C13.6815 2.41407 13.0431 2.41125 12.7501 2.3761C10.6525 2.22375 7.50293 2.22375 7.50293 2.22375H7.4973C7.4973 2.22375 4.34777 2.22375 2.25012 2.3761C1.95715 2.41125 1.31871 2.41407 0.747305 3.01172C0.295898 3.46594 0.152461 4.50001 0.152461 4.50001C0.152461 4.50001 0.00292969 5.71313 0.00292969 6.9286V8.06532C0.00292969 9.27797 0.152461 10.4939 0.152461 10.4939C0.152461 10.4939 0.29918 11.528 0.747305 11.9822C1.31871 12.5798 2.06871 12.5592 2.40246 12.6239C3.60387 12.7383 7.50293 12.7734 7.50293 12.7734C7.50293 12.7734 10.6553 12.7678 12.7529 12.6183C13.0459 12.5831 13.6848 12.5803 14.2557 11.9827C14.7067 11.5284 14.8534 10.4944 14.8534 10.4944C14.8534 10.4944 15.0029 9.28172 15.0029 8.06579V6.92907C15.0001 5.71594 14.8506 4.50001 14.8506 4.50001ZM5.95043 9.44532V5.22938L10.0023 7.34485L5.95043 9.44532Z" fill="#D7B46A"/>
</g>
<defs>
<clipPath id="clip0_194_3075">
<rect width="15" height="15" fill="white"/>
</clipPath>
</defs>
</svg>
