<svg width="15" height="15" viewBox="0 0 15 15" fill="none" xmlns="http://www.w3.org/2000/svg">
<g id="socials" clip-path="url(#clip0_194_3074)">
<path id="Vector" d="M7.5 1.35045C9.50391 1.35045 9.74109 1.35936 10.5291 1.39451C11.2617 1.42686 11.6569 1.54967 11.9208 1.65232C12.2695 1.78732 12.5212 1.95139 12.7819 2.21201C13.0458 2.47592 13.2066 2.72482 13.3444 3.07357C13.447 3.33748 13.5698 3.73545 13.6022 4.46529C13.6373 5.25654 13.6462 5.49373 13.6462 7.49482C13.6462 9.49592 13.6373 9.73592 13.6022 10.5244C13.5698 11.257 13.447 11.6522 13.3444 11.9161C13.2094 12.2648 13.0458 12.5165 12.7847 12.7772C12.5208 13.0411 12.2719 13.2019 11.9236 13.3397C11.6597 13.4423 11.2613 13.5651 10.5319 13.5975C9.74063 13.6326 9.50344 13.6415 7.50234 13.6415C5.50125 13.6415 5.26125 13.6326 4.47281 13.5975C3.74016 13.5651 3.345 13.4423 3.08109 13.3397C2.73234 13.2047 2.48063 13.0411 2.21953 12.78C1.95563 12.5161 1.79484 12.2672 1.65703 11.9189C1.55438 11.655 1.43156 11.2565 1.39922 10.5272C1.36406 9.73592 1.35516 9.49873 1.35516 7.49764C1.35516 5.49654 1.36406 5.25654 1.39922 4.46811C1.43156 3.73545 1.55438 3.34029 1.65703 3.07639C1.79203 2.72764 1.95609 2.47592 2.21672 2.21482C2.48063 1.95092 2.72953 1.79014 3.07828 1.65232C3.34219 1.54967 3.74016 1.42686 4.47 1.39451C5.25797 1.35936 5.49562 1.35045 7.49953 1.35045H7.5ZM7.5 -1.95312e-05C5.46375 -1.95312e-05 5.20922 0.00888672 4.40906 0.044043C3.61219 0.0791992 3.06422 0.208105 2.58984 0.392793C2.09484 0.585918 1.67578 0.840918 1.26 1.25998C0.840937 1.67623 0.585938 2.09482 0.392812 2.58701C0.208125 3.06467 0.0792188 3.60936 0.0440625 4.40623C0.00890625 5.2092 0 5.46373 0 7.49998C0 9.53623 0.00890625 9.79076 0.0440625 10.5909C0.0792188 11.3878 0.208125 11.9358 0.392812 12.4101C0.586406 12.9051 0.840937 13.3242 1.26 13.74C1.67578 14.1558 2.09484 14.414 2.58703 14.6044C3.06469 14.789 3.60937 14.9179 4.40625 14.9531C5.20594 14.9883 5.46094 14.9972 7.49719 14.9972C9.53344 14.9972 9.78844 14.9883 10.5881 14.9531C11.385 14.9179 11.933 14.789 12.4073 14.6044C12.8995 14.414 13.3186 14.1562 13.7344 13.74C14.1502 13.3237 14.4084 12.9051 14.5987 12.4129C14.7834 11.9353 14.9123 11.3906 14.9475 10.5937C14.9827 9.79404 14.9916 9.53904 14.9916 7.50279C14.9916 5.46654 14.9827 5.21201 14.9475 4.41186C14.9123 3.61498 14.7834 3.06701 14.5987 2.59264C14.4141 2.09436 14.1591 1.67576 13.7405 1.25951C13.3247 0.84373 12.9056 0.585449 12.4134 0.395137C11.9358 0.210449 11.3911 0.081543 10.5942 0.0463867C9.79172 0.00841797 9.53672 -0.000488281 7.50047 -0.000488281L7.5 -1.95312e-05Z" fill="#D7B46A"/>
<path id="Vector_2" d="M7.50012 3.64734C5.3734 3.64734 3.64746 5.37281 3.64746 7.5C3.64746 9.62718 5.37293 11.3527 7.50012 11.3527C9.62731 11.3527 11.3528 9.62718 11.3528 7.5C11.3528 5.37328 9.62731 3.64734 7.50012 3.64734ZM7.50012 9.9989C6.12012 9.9989 5.00121 8.88 5.00121 7.5C5.00121 6.12 6.12012 5.00109 7.50012 5.00109C8.88012 5.00109 9.99902 6.12 9.99902 7.5C9.99902 8.88 8.88012 9.9989 7.50012 9.9989Z" fill="#D7B46A"/>
<path id="Vector_3" d="M12.404 3.49499C12.404 3.99187 12.0014 4.39452 11.5045 4.39452C11.0076 4.39452 10.605 3.99187 10.605 3.49499C10.605 2.99812 11.0076 2.59546 11.5045 2.59546C12.0014 2.59546 12.404 2.99812 12.404 3.49499Z" fill="#D7B46A"/>
</g>
<defs>
<clipPath id="clip0_194_3074">
<rect width="15" height="15" fill="white"/>
</clipPath>
</defs>
</svg>
