<svg width="11" height="12" viewBox="0 0 11 12" fill="none" xmlns="http://www.w3.org/2000/svg">
<g clip-path="url(#clip0_194_1170)">
<path d="M5.5 1.4902C6.96953 1.4902 7.14347 1.49673 7.72131 1.52251C8.25859 1.54623 8.54837 1.63629 8.74191 1.71157C8.99766 1.81057 9.18225 1.93089 9.37337 2.12201C9.56691 2.31554 9.68481 2.49807 9.78588 2.75382C9.86116 2.94736 9.95122 3.2392 9.97494 3.77442C10.0007 4.35467 10.0072 4.52861 10.0072 5.99607C10.0072 7.46354 10.0007 7.63954 9.97494 8.21773C9.95122 8.75501 9.86116 9.04479 9.78588 9.23832C9.68688 9.49407 9.56691 9.67867 9.37544 9.86979C9.18191 10.0633 8.99938 10.1812 8.74397 10.2823C8.55044 10.3576 8.25825 10.4476 7.72338 10.4714C7.14313 10.4971 6.96919 10.5037 5.50172 10.5037C4.03425 10.5037 3.85825 10.4971 3.28006 10.4714C2.74278 10.4476 2.453 10.3576 2.25947 10.2823C2.00372 10.1833 1.81913 10.0633 1.62766 9.87186C1.43413 9.67832 1.31622 9.49579 1.21516 9.24039C1.13988 9.04686 1.04981 8.75467 1.02609 8.21979C1.00031 7.63954 0.993781 7.46561 0.993781 5.99814C0.993781 4.53067 1.00031 4.35467 1.02609 3.77648C1.04981 3.2392 1.13988 2.94942 1.21516 2.75589C1.31416 2.50014 1.43447 2.31554 1.62559 2.12407C1.81913 1.93054 2.00166 1.81264 2.25741 1.71157C2.45094 1.63629 2.74278 1.54623 3.278 1.52251C3.85584 1.49673 4.03012 1.4902 5.49966 1.4902H5.5ZM5.5 0.499855C4.00675 0.499855 3.82009 0.506387 3.23331 0.532168C2.64894 0.557949 2.24709 0.65248 1.89922 0.787918C1.53622 0.929543 1.22891 1.11654 0.924 1.42386C0.616687 1.72911 0.429688 2.03607 0.288062 2.39701C0.152625 2.74729 0.0580937 3.14673 0.0323125 3.73111C0.00653125 4.31995 0 4.50661 0 5.99986C0 7.49311 0.00653125 7.67976 0.0323125 8.26654C0.0580937 8.85092 0.152625 9.25276 0.288062 9.60064C0.430031 9.96364 0.616687 10.2709 0.924 10.5759C1.22891 10.8808 1.53622 11.0702 1.89716 11.2097C2.24744 11.3452 2.64687 11.4397 3.23125 11.4655C3.81769 11.4913 4.00469 11.4978 5.49794 11.4978C6.99119 11.4978 7.17819 11.4913 7.76462 11.4655C8.349 11.4397 8.75084 11.3452 9.09872 11.2097C9.45966 11.0702 9.76697 10.8811 10.0719 10.5759C10.3768 10.2706 10.5662 9.96364 10.7057 9.6027C10.8412 9.25242 10.9357 8.85298 10.9615 8.26861C10.9873 7.68217 10.9938 7.49517 10.9938 6.00192C10.9938 4.50867 10.9873 4.32201 10.9615 3.73523C10.9357 3.15086 10.8412 2.74901 10.7057 2.40114C10.5703 2.03573 10.3833 1.72876 10.0763 1.42351C9.77144 1.11861 9.46413 0.929199 9.10319 0.789637C8.75291 0.654199 8.35347 0.559668 7.76909 0.533887C7.18059 0.506043 6.99359 0.499512 5.50034 0.499512L5.5 0.499855Z" fill="white"/>
<path d="M5.50009 3.1748C3.94049 3.1748 2.6748 4.44015 2.6748 6.00009C2.6748 7.56002 3.94015 8.82537 5.50009 8.82537C7.06002 8.82537 8.32537 7.56002 8.32537 6.00009C8.32537 4.44049 7.06002 3.1748 5.50009 3.1748ZM5.50009 7.83262C4.48809 7.83262 3.66755 7.01209 3.66755 6.00009C3.66755 4.98809 4.48809 4.16755 5.50009 4.16755C6.51209 4.16755 7.33262 4.98809 7.33262 6.00009C7.33262 7.01209 6.51209 7.83262 5.50009 7.83262Z" fill="white"/>
<path d="M9.09617 3.06298C9.09617 3.42735 8.80089 3.72263 8.43651 3.72263C8.07214 3.72263 7.77686 3.42735 7.77686 3.06298C7.77686 2.6986 8.07214 2.40332 8.43651 2.40332C8.80089 2.40332 9.09617 2.6986 9.09617 3.06298Z" fill="white"/>
</g>
<defs>
<clipPath id="clip0_194_1170">
<rect width="11" height="11" fill="white" transform="translate(0 0.5)"/>
</clipPath>
</defs>
</svg>
