<svg width="11" height="10" viewBox="0 0 11 10" fill="none" xmlns="http://www.w3.org/2000/svg">
<path d="M11.0001 1.93203C10.5962 2.1125 10.16 2.23281 9.70452 2.28644C10.1706 2.00697 10.5275 1.56456 10.6969 1.03828C10.2607 1.29609 9.77739 1.48516 9.26383 1.58622C8.85133 1.14794 8.26489 0.875 7.61589 0.875C6.3698 0.875 5.35986 1.88494 5.35986 3.13103C5.35986 3.30703 5.37911 3.47891 5.41795 3.64459C3.54245 3.55006 1.87939 2.65184 0.766672 1.28578C0.573141 1.61888 0.461766 2.00766 0.461766 2.42016C0.461766 3.20219 0.859141 3.89381 1.46517 4.29806C1.09564 4.28741 0.747766 4.18428 0.442516 4.01653C0.442516 4.02512 0.442516 4.03578 0.442516 4.04438C0.442516 5.13784 1.22042 6.05119 2.25373 6.25709C2.06467 6.30866 1.86495 6.3365 1.6587 6.3365C1.51261 6.3365 1.37305 6.32137 1.23348 6.29559C1.52155 7.19141 2.35514 7.84453 3.34102 7.86413C2.56758 8.46981 1.59648 8.83109 0.537391 8.83109C0.354859 8.83109 0.176453 8.82044 -0.00195312 8.79878C0.999391 9.44125 2.18498 9.81284 3.45927 9.81284C7.61005 9.81284 9.88086 6.37328 9.88086 3.39125C9.88086 3.29259 9.8788 3.19566 9.87433 3.09906C10.3147 2.78316 10.6973 2.38578 11.0001 1.93238V1.93203Z" fill="white"/>
</svg>
