<svg width="11" height="11" viewBox="0 0 11 11" fill="none" xmlns="http://www.w3.org/2000/svg">
<path d="M5.05828 0.304298C5.22521 -0.101433 5.77479 -0.101433 5.94172 0.304298L7.14253 3.22302C7.21215 3.39225 7.36455 3.50815 7.53983 3.52517L10.5628 3.81865C10.9831 3.85944 11.1529 4.40655 10.8358 4.6981L8.55497 6.79545C8.42272 6.91706 8.36451 7.10459 8.40321 7.28434L9.07072 10.3844C9.16351 10.8154 8.71889 11.1535 8.35601 10.928L5.74555 9.30548C5.59418 9.21141 5.40582 9.21141 5.25445 9.30548L2.64399 10.928C2.28111 11.1535 1.83649 10.8154 1.92928 10.3844L2.59679 7.28434C2.63549 7.10459 2.57728 6.91706 2.44503 6.79545L0.164172 4.6981C-0.152889 4.40655 0.0169408 3.85944 0.437167 3.81865L3.46017 3.52517C3.63545 3.50815 3.78785 3.39225 3.85747 3.22302L5.05828 0.304298Z" fill="#D7B46A"/>
</svg>
